<svg height="48" viewBox="0 0 48 48" width="48" xmlns="http://www.w3.org/2000/svg">
  <defs>
    <clipPath id="clip-add_to_cart">
      <rect height="48" width="48"/>
    </clipPath>
  </defs>
  <g clip-path="url(#clip-add_to_cart)" id="add_to_cart">
    <path d="M42.06,26.667H17.631l.545,2.667H40.545a2,2,0,0,1,1.95,2.443l-.46,2.023a4.668,4.668,0,1,1-5.3.867H19.265a4.666,4.666,0,1,1-5.587-.714L7.824,5.333H2a2,2,0,0,1-2-2V2A2,2,0,0,1,2,0h8.544A2,2,0,0,1,12.5,1.6l.764,3.734H46a2,2,0,0,1,1.95,2.443L44.01,25.11A2,2,0,0,1,42.06,26.667ZM34,14H30V10.667a1.333,1.333,0,0,0-1.333-1.333H27.333A1.333,1.333,0,0,0,26,10.667V14H22a1.333,1.333,0,0,0-1.333,1.333v1.333A1.333,1.333,0,0,0,22,18h4v3.333a1.333,1.333,0,0,0,1.333,1.333h1.333A1.333,1.333,0,0,0,30,21.333V18h4a1.333,1.333,0,0,0,1.333-1.333V15.333A1.333,1.333,0,0,0,34,14Z" data-name="Icon awesome-cart-plus"
          fill="#06b37b"
          id="Icon_awesome-cart-plus" transform="translate(0 2.778)"/>
  </g>
</svg>
