<svg height="48" viewBox="0 0 48 48" width="48" xmlns="http://www.w3.org/2000/svg">
  <defs>
    <clipPath id="clip-buy">
      <rect height="48" width="48"/>
    </clipPath>
  </defs>
  <g clip-path="url(#clip-buy)" id="buy">
    <g id="cart" transform="translate(0 -3.452)">
      <g data-name="Group 224" id="Group_224" transform="translate(0 4.428)">
        <g data-name="Group 223" id="Group_223">
          <circle cx="5.818" cy="5.818" data-name="Ellipse 10" fill="#ffbc1e" id="Ellipse_10"
                  r="5.818" transform="translate(11.184 35.359)"/>
          <path d="M271.055,324.2h0a5.874,5.874,0,1,0,5.271,5.271A5.874,5.874,0,0,0,271.055,324.2Z" data-name="Path 1189"
                fill="#ffbc1e"
                id="Path_1189" transform="translate(-235.414 -288.902)"/>
          <path d="M47.615,17.589a1.525,1.525,0,0,0-1.3-.678H39.877V16.8a12.37,12.37,0,1,0-24.74,0v.115h-4.8L8.7,9.456a1.694,1.694,0,0,0-1.638-1.3H0v3.389H5.7l5.253,24.118A1.638,1.638,0,0,0,12.6,37.02H42.136a1.7,1.7,0,0,0,1.638-1.3L47.954,19A1.582,1.582,0,0,0,47.615,17.589Zm-20.108,8.19A8.981,8.981,0,1,1,36.488,16.8,8.981,8.981,0,0,1,27.507,25.779Z" data-name="Path 1190"
                fill="#ffbc1e"
                id="Path_1190" transform="translate(0 -4.428)"/>
          <path d="M192.415,73l-3.107-3.163-2.429,2.372,4.293,4.349a1.694,1.694,0,0,0,1.186.508,1.581,1.581,0,0,0,1.186-.452l7.117-6.721-2.316-2.485Z" data-name="Path 1191"
                fill="#ffbc1e"
                id="Path_1191" transform="translate(-166.264 -60.464)"/>
        </g>
      </g>
    </g>
  </g>
</svg>
