<svg height="48" viewBox="0 0 48 48" width="48" xmlns="http://www.w3.org/2000/svg">
  <defs>
    <clipPath id="clip-close_cross">
      <rect height="48" width="48"/>
    </clipPath>
  </defs>
  <g clip-path="url(#clip-close_cross)" id="close_cross">
    <path d="M29.977,14.514l3.343,3.343-6.241,6.129,6.241,6.129-3.343,3.343-6.241-6.129-6.129,6.129-3.343-3.343,6.129-6.129-6.129-6.129,3.343-3.343,6.129,6.129ZM23.792.25A22.925,22.925,0,0,1,40.619,7.214a22.862,22.862,0,0,1,6.964,16.772,22.862,22.862,0,0,1-6.964,16.772,22.925,22.925,0,0,1-16.826,6.964A22.925,22.925,0,0,1,6.966,40.758,22.866,22.866,0,0,1,0,23.986,22.855,22.855,0,0,1,6.964,7.214,22.93,22.93,0,0,1,23.792.25Zm0,42.792a18.3,18.3,0,0,0,13.429-5.572,18.366,18.366,0,0,0,5.572-13.483A18.366,18.366,0,0,0,37.221,10.5,18.3,18.3,0,0,0,23.792,4.93,18.3,18.3,0,0,0,10.364,10.5,18.366,18.366,0,0,0,4.791,23.986a18.366,18.366,0,0,0,5.572,13.483A18.3,18.3,0,0,0,23.792,43.042Z"
          fill="#444"
          id="close-circle-o" transform="translate(0 -0.216)"/>
  </g>
</svg>
