<svg height="48" viewBox="0 0 48 48" width="48" xmlns="http://www.w3.org/2000/svg">
  <defs>
    <clipPath id="clip-date_picker">
      <rect height="48" width="48"/>
    </clipPath>
  </defs>
  <g clip-path="url(#clip-date_picker)" id="date_picker">
    <path d="M18.9,24.6H14.1v4.8h4.8Zm9.6,0H23.7v4.8h4.8Zm9.6,0H33.3v4.8h4.8ZM42.9,7.8H40.5V3H35.7V7.8H16.5V3H11.7V7.8H9.3a4.778,4.778,0,0,0-4.776,4.8L4.5,46.2A4.8,4.8,0,0,0,9.3,51H42.9a4.814,4.814,0,0,0,4.8-4.8V12.6A4.814,4.814,0,0,0,42.9,7.8Zm0,38.4H9.3V19.8H42.9Z" data-name="Icon material-date-range"
          fill="#c9c9c9"
          id="Icon_material-date-range" transform="translate(-2.1 -3)"/>
  </g>
</svg>
