<svg height="96" viewBox="0 0 96 96" width="96" xmlns="http://www.w3.org/2000/svg">
  <defs>
    <clipPath id="clip-delivered">
      <rect height="96" width="96"/>
    </clipPath>
  </defs>
  <g clip-path="url(#clip-delivered)" id="delivered">
    <g id="parcel" transform="translate(0.024 8.395)">
      <path d="M186.233,26.5H121.749A3.749,3.749,0,0,0,118,30.249V94.733a3.749,3.749,0,0,0,3.749,3.749h64.484a3.749,3.749,0,0,0,3.749-3.749V30.249A3.749,3.749,0,0,0,186.233,26.5Zm0,0" data-name="Path 2545"
            fill="#fff"
            id="Path_2545" transform="translate(-95.881 -21.126)"/>
      <path d="M252.4,26.5h21.6V47.49l-5.4-5.4-5.4,5.4-5.4-5.4-5.4,5.4Zm0,0" data-name="Path 2546" fill="#fff"
            id="Path_2546" transform="translate(-205.085 -21.126)"/>
      <path d="M135.97,180.293l-6.772-5.08A21.045,21.045,0,0,0,116.549,171l-6.855.007,0,0L96.044,184.654l0,0-.005,3.491a17.336,17.336,0,0,0,5.077,12.283l14.429,14.429a3.536,3.536,0,0,0,5.17-4.82l2.384,2.384a3.587,3.587,0,0,0,4.762.321,3.536,3.536,0,0,0,.463-5.086l2.129,2.129a3.687,3.687,0,0,0,4.827.274,3.538,3.538,0,0,0,.235-5.219l-2.188-2.188a3.536,3.536,0,0,0,5.086-.463,3.587,3.587,0,0,0-.321-4.762l-14.451-14.451a.3.3,0,0,1,.371-.462l7.219,4.609a4.161,4.161,0,0,0,4.735-6.835Zm0,0" data-name="Path 2547"
            fill="#fff"
            id="Path_2547" transform="translate(-78.04 -138.543)"/>
      <path d="M25.616,54.751,39.933,40.433,10,10.5V39.134Zm0,0" data-name="Path 2548" fill="#f9f9f9"
            id="Path_2548" transform="translate(-8.125 -8.126)"/>
      <path d="M90.352,3.5H25.868a5.63,5.63,0,0,0-5.624,5.624v8.971L3.2,1.049A1.874,1.874,0,0,0,.549,3.7l22.08,22.08L10.963,37.446,3.2,29.683A1.875,1.875,0,0,0,.549,32.334L16.131,47.916l0,1.687a19.36,19.36,0,0,0,4.116,11.9v12.1a5.63,5.63,0,0,0,5.624,5.624H90.352a5.63,5.63,0,0,0,5.624-5.624V30.865a1.875,1.875,0,0,0-3.749,0V73.606a1.877,1.877,0,0,1-1.875,1.875H51.218c.078-.07.155-.141.231-.217a5.375,5.375,0,0,0,1.112-1.616,5.414,5.414,0,0,0,7.263-7.259,5.414,5.414,0,0,0,1.615-8.769l-6.456-6.456a5.964,5.964,0,0,0,5.252-2.422l.062-.084A6.088,6.088,0,0,0,59.029,40.2c-1.679-1.248-3.953-2.945-6.76-5.046A23.063,23.063,0,0,0,38.54,30.588h-.025l-5.771.006-8.751-8.751V9.123a1.876,1.876,0,0,1,1.875-1.875h19.57V26.364a1.875,1.875,0,0,0,3.2,1.326l4.073-4.073,4.073,4.073a1.874,1.874,0,0,0,2.651,0l4.073-4.073,4.073,4.073a1.875,1.875,0,0,0,3.2-1.325V7.248h19.57a1.876,1.876,0,0,1,1.875,1.875v6.746a1.875,1.875,0,1,0,3.749,0V9.123A5.63,5.63,0,0,0,90.352,3.5ZM23.994,73.606V65.454l6.125,6.125h0l3.9,3.9H25.868a1.877,1.877,0,0,1-1.875-1.875ZM38.52,34.336h.021a19.29,19.29,0,0,1,11.482,3.82c2.81,2.1,5.088,3.8,6.77,5.052a2.328,2.328,0,0,1,.476,3.235l-.062.084a2.212,2.212,0,0,1-2.98.552l-7.193-4.637a2.173,2.173,0,0,0-2.713,3.363L58.787,60.272a1.663,1.663,0,0,1-2.206,2.482l-7.26-7.26a1.867,1.867,0,0,0-.157-.139l-.742-.742a1.875,1.875,0,1,0-2.651,2.651l8.012,8.012c.083.083.169.162.256.239l2.115,2.115A1.663,1.663,0,1,1,53.8,69.981l-2.116-2.116c-.076-.086-.154-.172-.238-.256l-7.122-7.122a2,2,0,0,0-.157-.139l-.742-.742a1.874,1.874,0,0,0-2.651,2.651l8.15,8.15a1.663,1.663,0,0,1-2.482,2.206l-2.367-2.367c-.077-.088-.156-.174-.239-.256l-4.508-4.508a2,2,0,0,0-.157-.139l-.742-.742a1.875,1.875,0,0,0-2.651,2.651l5.536,5.536a1.663,1.663,0,0,1-2.482,2.205l-9.819-9.819v0l-4.609-4.609A15.569,15.569,0,0,1,19.878,49.61l0-2.725L32.424,34.343ZM17.491,43.974,13.614,40.1,25.28,28.43l3.877,3.877ZM67.033,21.839l-2.2-2.2a1.875,1.875,0,0,0-2.651,0L58.11,23.713,54.037,19.64a1.874,1.874,0,0,0-2.651,0l-2.2,2.2V7.248H67.033Zm0,0" data-name="Path 2549"
            fill="#06b37b"
            id="Path_2549" transform="translate(0 0)"/>
      <path d="M387.871,299.656h-12a1.875,1.875,0,0,0,0,3.749h12a1.875,1.875,0,1,0,0-3.749Zm0,0" data-name="Path 2550"
            fill="#06b37b"
            id="Path_2550" transform="translate(-303.893 -243.078)"/>
      <path d="M404.665,340.9h-8.123a1.875,1.875,0,0,0,0,3.749h8.123a1.875,1.875,0,1,0,0-3.749Zm0,0" data-name="Path 2551"
            fill="#06b37b"
            id="Path_2551" transform="translate(-320.687 -276.593)"/>
      <path d="M356.543,340.9a1.875,1.875,0,1,0,1.325.549A1.885,1.885,0,0,0,356.543,340.9Zm0,0" data-name="Path 2552"
            fill="#06b37b"
            id="Path_2552" transform="translate(-288.185 -276.59)"/>
      <path d="M493.875,112.488a1.875,1.875,0,1,0,1.325.549A1.89,1.89,0,0,0,493.875,112.488Zm0,0" data-name="Path 2553"
            fill="#06b37b"
            id="Path_2553" transform="translate(-399.774 -90.996)"/>
    </g>
  </g>
</svg>
