<svg height="96" viewBox="0 0 96 96" width="96" xmlns="http://www.w3.org/2000/svg">
  <defs>
    <clipPath id="clip-delivery_person">
      <rect height="96" width="96"/>
    </clipPath>
  </defs>
  <g clip-path="url(#clip-delivery_person)" id="delivery_person">
    <g id="Flat" transform="translate(6)">
      <g data-name="Group 615" id="Group_615" transform="translate(0 0)">
        <path d="M120.726,272.5l-10.6-11.261L91.424,248h-18.7l-18.7,13.241L43.423,272.5A12.816,12.816,0,0,0,40,281.28v10.168a6.033,6.033,0,0,0,5.844,6.207h5.065L52.467,296h59.216l1.558,1.655h5.065a6.034,6.034,0,0,0,5.844-6.207V281.28a12.816,12.816,0,0,0-3.423-8.778Z" data-name="Path 2511"
              fill="#fff"
              id="Path_2511" stroke="#06b37b" stroke-width="1" transform="translate(-40 -201.655)"/>
        <path d="M227.862,216.276l-9.931,9.931L208,216.276,209.655,208h16.552Z" data-name="Path 2512" fill="#fff"
              id="Path_2512" stroke="#06b37b" stroke-width="1" transform="translate(-175.857 -169.931)"/>
        <path d="M230.21,212.073,229.4,208H212.843l-.823,4.117L217.777,215a7.448,7.448,0,0,0,6.7-.017Z" data-name="Path 2513"
              fill="#fff"
              id="Path_2513" stroke="#06b37b" stroke-width="1" transform="translate(-179.045 -169.931)"/>
        <path d="M195.586,94.621H193.1V88H166.621v6.621h-2.483A4.138,4.138,0,0,0,160,98.759v1.655a4.138,4.138,0,0,0,4.138,4.138h2.483v2.785a6.207,6.207,0,0,0,3.431,5.552L178,116.862a4.138,4.138,0,0,0,3.72-.009l7.981-4.042a6.207,6.207,0,0,0,3.4-5.538v-2.722h2.483a4.138,4.138,0,0,0,4.138-4.138V98.759A4.138,4.138,0,0,0,195.586,94.621Z" data-name="Path 2514"
              fill="#fff"
              id="Path_2514" stroke="#06b37b" stroke-width="1" transform="translate(-137.788 -74.759)"/>
        <path d="M236.966,184.138c-2.784,0-4.966-1.818-4.966-4.138h3.31c0,.292.628.828,1.655.828s1.655-.536,1.655-.828h3.31C241.931,182.32,239.75,184.138,236.966,184.138Z" data-name="Path 2517"
              fill="#06b37b"
              id="Path_2517" transform="translate(-194.891 -147.724)"/>
        <path d="M194.345,24h9.1a10.345,10.345,0,0,1,10.345,10.345v2.9H184v-2.9A10.345,10.345,0,0,1,194.345,24Z" data-name="Path 2518"
              fill="#06b37b"
              id="Path_2518" stroke="#06b37b" stroke-width="1" transform="translate(-156.822 -24)"/>
        <path d="M207.36,71.053l-3.873-2.582a8.276,8.276,0,0,0-9.181,0l-3.873,2.582A4.138,4.138,0,0,1,184,67.61v-2.2l6.858-3.81a16.552,16.552,0,0,1,16.076,0l6.859,3.81v2.2a4.138,4.138,0,0,1-6.433,3.443Z" data-name="Path 2519"
              fill="#fff"
              id="Path_2519" stroke="#06b37b" stroke-width="1" transform="translate(-156.822 -52.169)"/>
        <rect data-name="Rectangle 185" fill="#fff" height="35.348" id="Rectangle_185" rx="2"
              stroke="#06b37b" stroke-width="1" transform="translate(18.664 59.006)" width="46.821"/>
        <path d="M102.621,432H96v11.586h18.207A11.586,11.586,0,0,0,102.621,432Z" data-name="Path 2520" fill="#06b37b"
              id="Path_2520" transform="translate(-87.029 -347.586)"/>
        <path d="M224,280h13.241v14.9H224Z" data-name="Path 2521" fill="#fff"
              id="Path_2521" stroke="#06b37b" stroke-width="1" transform="translate(-188.544 -221.243)"/>
        <path d="M224,440h13.241v9.931H224Z" data-name="Path 2522" fill="#fff"
              id="Path_2522" stroke="#06b37b" stroke-width="1" transform="translate(-188.544 -355.247)"/>
        <path d="M339.586,432h6.621v11.586H328A11.586,11.586,0,0,1,339.586,432Z" data-name="Path 2523" fill="#06b37b"
              id="Path_2523" transform="translate(-271.029 -347.586)"/>
        <g data-name="Group 614" id="Group_614" transform="translate(23.63 64.757)">
          <path d="M136,304h3.31v3.31H136Z" data-name="Path 2524" fill="#fffffe" id="Path_2524"
                stroke="#06b37b" stroke-width="1" transform="translate(-136 -304)"/>
        </g>
        <path d="M416,432h4.966v3.31H416Z" data-name="Path 2528" fill="#06b37b" id="Path_2528"
              transform="translate(-340.822 -347.586)"/>
        <path d="M72,432h4.966v3.31H72Z" data-name="Path 2529" fill="#06b37b" id="Path_2529"
              transform="translate(-67.995 -347.586)"/>
      </g>
    </g>
  </g>
</svg>
