<svg height="48" viewBox="0 0 138 48" width="138" xmlns="http://www.w3.org/2000/svg">
  <defs>
    <clipPath id="clip-Ebonear_ash_color">
      <rect height="48" width="138"/>
    </clipPath>
  </defs>
  <g clip-path="url(#clip-Ebonear_ash_color)" id="Ebonear_ash_color">
    <g data-name="Group 274" id="Group_274" transform="translate(-169.621 -320)">
      <text data-name="ONLINE SHOPS" fill="#c9c9c9" font-family="Lato-Medium, Lato" font-size="7" font-weight="500"
            id="ONLINE_SHOPS" letter-spacing="0.069em" transform="translate(231.5 364.085)">
        <tspan x="0" y="0">ONLINE SHOPS</tspan>
      </text>
      <path d="M236.424,337.935a7.964,7.964,0,0,1-.052,3.031c-.143,1.676-.324,3.349-.491,5.023-.133,1.333-.243,2.669-.407,4a3.111,3.111,0,0,1-2.456,2.593c-.721.157-1.449.288-2.174.43q-7.688,1.506-15.376,3.014a2.638,2.638,0,0,1-1.677-.135,1.905,1.905,0,0,1-.83-2.661,3.3,3.3,0,0,1,2.466-1.906c1.825-.369,3.655-.719,5.483-1.073q3.371-.653,6.742-1.3c.232-.044.967-.236,1.061-.266a3.021,3.021,0,0,0,2.066-2.6c.041-.486.089-.972.161-1.455a1.879,1.879,0,0,0-2.044-2.107,4.3,4.3,0,0,0-.678.1q-10.261,2.008-20.522,4.021c-.715.14-1.428.288-2.144.419-.234.043-.326.115-.3.385.275,2.585.527,5.172.8,7.757.195,1.872.4,3.742.607,5.614.041.382.076.765.12,1.147a1.909,1.909,0,0,0,2.22,1.6c.351-.04.7-.125,1.043-.192q3.63-.709,7.26-1.42c.257-.051,1.969-.372,2.3-.437,3.969-.79,7.943-1.56,11.914-2.338a2.686,2.686,0,0,1,1.68.133,2.006,2.006,0,0,1,.974,2.716,3.208,3.208,0,0,1-2.465,1.985q-4.79.954-9.586,1.884-8.729,1.711-17.458,3.423a2.591,2.591,0,0,1-1.676-.133,1.729,1.729,0,0,1-1.032-1.452c-.128-1.178-.247-2.358-.364-3.537q-.178-1.8-.345-3.6c-.2-2.132-.394-4.265-.6-6.4-.161-1.687-.34-3.372-.5-5.059-.2-2.142-.394-4.286-.6-6.428-.138-1.449-.311-2.894-.431-4.345a1.779,1.779,0,0,0-2.188-1.608c-.679.1-1.349.254-2.023.385-2.093.409-4.187.815-6.279,1.232a2.4,2.4,0,0,1-1.553-.145,1.7,1.7,0,0,1-.731-2.276,3.309,3.309,0,0,1,2.5-1.991c3.03-.608,6.065-1.189,9.1-1.781,1.123-.219,2.245-.447,3.369-.659a2.274,2.274,0,0,1,1.6.217,1.6,1.6,0,0,1,.837,1.309c.036.4.206,2.115.226,2.308.178,1.738.377,3.474.536,5.213a1.825,1.825,0,0,0,2.246,1.674c1.967-.347,3.924-.749,5.884-1.132q10.615-2.072,21.229-4.146a2.286,2.286,0,0,1,2.153.5c.15.142.274.311.409.467Z" data-name="Path 1198"
            fill="#c9c9c9"
            id="Path_1198" transform="translate(-8.688 -6.027)"/>
      <path d="M180.905,386.531c.665-.12,1.328-.253,1.992-.382q3.032-.593,6.064-1.193a.614.614,0,0,1,.719.214,1.1,1.1,0,0,1,.062,1.065.972.972,0,0,1-.483.238c-1.6.324-3.2.633-4.808.947l-9.8,1.916c-.252.049-.521.148-.726-.1a.988.988,0,0,1-.188-1.051.734.734,0,0,1,.477-.329c1.436-.3,2.878-.569,4.315-.86C178.781,386.944,180.568,386.591,180.905,386.531Z" data-name="Path 1199"
            fill="#c9c9c9"
            id="Path_1199" transform="translate(-2.119 -34.089)"/>
      <path d="M236.455,411.03a2.228,2.228,0,0,1,2.606,1.793,2.238,2.238,0,1,1-4.4.834A2.217,2.217,0,0,1,236.455,411.03Z" data-name="Path 1200"
            fill="#c9c9c9"
            id="Path_1200" transform="translate(-34.127 -47.775)"/>
      <path d="M268.961,404.672a2.227,2.227,0,0,1,2.605,1.793,2.238,2.238,0,1,1-4.4.834A2.216,2.216,0,0,1,268.961,404.672Z" data-name="Path 1201"
            fill="#c9c9c9"
            id="Path_1201" transform="translate(-51.194 -44.436)"/>
      <path d="M190.565,369.975q2.021-.395,4.043-.79c.458-.089.723.108.831.609s-.055.82-.524.913q-4.072.8-8.147,1.594c-.493.1-.716-.087-.821-.64s.049-.791.544-.889Q188.528,370.372,190.565,369.975Z" data-name="Path 1202"
            fill="#c9c9c9"
            id="Path_1202" transform="translate(-8.556 -25.813)"/>
      <path d="M195.069,403.051c-1.224.24-2.449.474-3.672.721a.594.594,0,0,1-.739-.288.97.97,0,0,1-.005-1.028.681.681,0,0,1,.342-.186c2.519-.5,5.039-.989,7.558-1.486a.492.492,0,0,1,.6.264,1.982,1.982,0,0,1,.156.778c0,.29-.217.442-.51.5C197.558,402.56,196.314,402.807,195.069,403.051Z" data-name="Path 1203"
            fill="#c9c9c9"
            id="Path_1203" transform="translate(-10.967 -42.407)"/>
      <path d="M175.112,374.313c.346-.068.694-.127,1.037-.206a.516.516,0,0,1,.642.3,1.884,1.884,0,0,1,.136.72.482.482,0,0,1-.432.492c-.733.142-1.463.3-2.2.427-.412.072-.632-.156-.724-.7-.08-.466.076-.748.472-.831C174.4,374.449,174.756,374.383,175.112,374.313Z" data-name="Path 1204"
            fill="#c9c9c9"
            id="Path_1204" transform="translate(-2.064 -28.398)"/>
      <path d="M183.986,404.81c.337-.066.673-.135,1.011-.2.405-.075.54,0,.716.368.3.635.1,1.056-.572,1.188-.623.123-1.245.247-1.868.364-.441.083-.72-.137-.82-.634s.076-.8.523-.89C183.311,404.938,183.649,404.876,183.986,404.81Z" data-name="Path 1205"
            fill="#c9c9c9"
            id="Path_1205" transform="translate(-6.723 -44.411)"/>
      <path d="M179.616,406.911a.763.763,0,0,1-.59.889.772.772,0,0,1-.9-.616.758.758,0,1,1,1.49-.273Z" data-name="Path 1206"
            fill="#c9c9c9"
            id="Path_1206" transform="translate(-4.458 -45.303)"/>
      <path d="M183.23,373.962a.731.731,0,0,1-.6.893.754.754,0,0,1-.882-.593.805.805,0,0,1,.61-.912A.777.777,0,0,1,183.23,373.962Z" data-name="Path 1207"
            fill="#c9c9c9"
            id="Path_1207" transform="translate(-6.358 -28.006)"/>
      <path d="M169.64,392.764a.747.747,0,0,1,.578-.914.815.815,0,0,1,.9.586.793.793,0,0,1-.6.914A.726.726,0,0,1,169.64,392.764Z" data-name="Path 1208"
            fill="#c9c9c9"
            id="Path_1208" transform="translate(0 -37.718)"/>
      <g data-name="Group 269" id="Group_269" transform="translate(230.699 329.546)">
        <g data-name="Group 268" id="Group_268" transform="translate(0 0)">
          <path d="M303.781,340.128c.048.038.1.077.159.115v.029a.214.214,0,0,0,.058.044c.019.01.051.028.057.043a.907.907,0,0,1-.148.591,5.063,5.063,0,0,1-.324.475l-.029.029q-.118.145-.237.3a1.169,1.169,0,0,0-.181.36,39.789,39.789,0,0,0-.736,3.937c-.182,1.354-.322,2.709-.393,4.066q-.04.764-.042,1.536t.01,1.549c.008.519.025,1.036.042,1.532a9.181,9.181,0,0,0,.073,1.465c.032.139.117.318.162.482s.082.326.109.483a.446.446,0,0,1,.051.115.557.557,0,0,1,.021.117,7.1,7.1,0,0,0,.646,1.5,1.884,1.884,0,0,0,1.311.872l.072-.01.072-.01a.108.108,0,0,0,.076.014l.072-.01a2.364,2.364,0,0,0,1.188-.5,1.576,1.576,0,0,0,.6-.848c.045-.221.075-.461.108-.693s.075-.472.094-.7.019-.463.033-.7.018-.467.015-.7a11.38,11.38,0,0,0-.541-3.319,9.159,9.159,0,0,0-1.617-3.01,4.042,4.042,0,0,0-.613-.553q-.309-.222-.619-.416c-.094-.056-.188-.116-.281-.181s-.187-.135-.28-.21a.56.56,0,0,1,.261-.471,1.163,1.163,0,0,1,.5-.1h.35a.534.534,0,0,0,.173.028h.175a.894.894,0,0,0,.321,0,.546.546,0,0,0,.27-.144.278.278,0,0,0,.13.028h.131a1.289,1.289,0,0,0,.56-.132,5.234,5.234,0,0,0,.54-.3c.18-.115.349-.216.509-.3a.986.986,0,0,1,.471-.13.605.605,0,0,1,.343.112.944.944,0,0,1,.3.4,8.788,8.788,0,0,1,1.793,3.2,11.092,11.092,0,0,1,.476,3.461c0,.239-.012.486-.034.718s-.038.468-.063.691a11.107,11.107,0,0,1-.352,1.7,13.306,13.306,0,0,1-.548,1.63,4.113,4.113,0,0,1-.787,1.155,3.149,3.149,0,0,1-1.2.847,10.977,10.977,0,0,1-1.344.341q-.7.15-1.443.277-.344.059-.7.109t-.733.116q-.373.066-.733.119c-.24.035-.475.073-.7.116q-.716.132-1.412.295a9.75,9.75,0,0,0-1.329.408c-.065-.026-.124-.048-.177-.066a.414.414,0,0,1-.153-.1l-.08-.1a.249.249,0,0,1-.05-.107.613.613,0,0,1,.074-.409c.075-.14.161-.286.253-.436.078-.127.152-.256.222-.382a.749.749,0,0,0,.112-.36c-.019-.774-.128-1.629-.178-2.417s-.074-1.57-.081-2.346c0-.511,0-1.025.007-1.54s0-1.041.014-1.547c.009-.469.036-.963.052-1.452s.02-.985.039-1.456c.031-.755.089-1.54.12-2.312a12.453,12.453,0,0,1,.117-2.376.605.605,0,0,0,.037-.13c0-.048,0-.092.007-.131a.915.915,0,0,0-.093-.449,2.318,2.318,0,0,0-.24-.419,3.869,3.869,0,0,1-.274-.347.6.6,0,0,1-.1-.347.371.371,0,0,1,.051-.188.654.654,0,0,1,.165-.16.685.685,0,0,1,.133-.1.846.846,0,0,1,.161-.073,5.536,5.536,0,0,0,1.85-.55q.861-.434,1.675-.924a.084.084,0,0,0,.058-.029.086.086,0,0,1,.058-.029q.289-.173.564-.346t.563-.316A.164.164,0,0,1,303.781,340.128Z" data-name="Path 1209"
                fill="#c9c9c9"
                id="Path_1209" transform="translate(-298.219 -340.099)"/>
          <path d="M329.478,353.36a9.443,9.443,0,0,0,1.027.1c.17,0,.343,0,.508.012s.333.013.508.012a13.7,13.7,0,0,0,1.511-.088q.756-.086,1.426-.2a5.919,5.919,0,0,1,1.752,2.695,11.365,11.365,0,0,1,.51,3.073c0,.066,0,.131,0,.2s0,.13,0,.194q-.006.509-.053.988c-.031.32-.067.628-.106.926a5.192,5.192,0,0,1-1.708,2.837,10.063,10.063,0,0,1-3.266,1.938,7.591,7.591,0,0,1-3.9-1.465,4.762,4.762,0,0,1-1.973-3.189v-.1c0-.13,0-.256-.011-.382s0-.269-.013-.393-.027-.246-.025-.383,0-.265.006-.387a11.458,11.458,0,0,1,.635-3.526,6.6,6.6,0,0,1,2.182-3.01Q328.972,353.291,329.478,353.36Zm3.581,3.722a1.33,1.33,0,0,1-.126-.2,8.318,8.318,0,0,0-1.227-1.417,2.645,2.645,0,0,0-1.858-.6h-.117a1.579,1.579,0,0,0-.776.523,4.021,4.021,0,0,0-.465.762.124.124,0,0,1-.017.054.121.121,0,0,0-.017.054l0,.107,0,.108c0,.036,0,.072,0,.107s0,.072,0,.107l-.008.214c0,.072,0,.151-.008.24a8.828,8.828,0,0,0,.848,3.776,4.806,4.806,0,0,0,2.875,2.378,1.171,1.171,0,0,0,.3.089,3,3,0,0,0,.353.044l.087,0,.088,0a1.532,1.532,0,0,0,.393-.071.782.782,0,0,0,.3-.169,3.572,3.572,0,0,0,.453-.948,3.46,3.46,0,0,0,.144-.978,5.553,5.553,0,0,0-.28-1.717q-.281-.876-.611-1.775c-.038-.085-.069-.167-.1-.244a2.381,2.381,0,0,0-.1-.246A1.152,1.152,0,0,0,333.059,357.082Z" data-name="Path 1210"
                fill="#c9c9c9"
                id="Path_1210" transform="translate(-312.626 -346.974)"/>
          <path d="M355.189,353.323q.549.026,1.1.026t1.088-.029q.536-.028,1.088-.085a2.815,2.815,0,0,0,.29-.014c.1-.009.2-.011.29-.014.3-.01.614-.033.913-.043s.6-.014.913-.015q.608,0,1.26.055a10.22,10.22,0,0,1,1.289.193c-.02.276-.049.559-.088.836s-.063.558-.089.815c-.046.449-.118.913-.178,1.36s-.117.893-.149,1.317c-.026.341-.04.691-.06,1.027s-.03.667-.03.991a8.758,8.758,0,0,0,.453,2.955,4.373,4.373,0,0,0,1.678,2.135l-.087.171c-1.74.014-2.61.03-4.349.084a1.335,1.335,0,0,1-.579-.52,2.158,2.158,0,0,1-.23-.64.879.879,0,0,0-.017-.161,1.164,1.164,0,0,1-.017-.146,3.541,3.541,0,0,0-.078-.443,2.183,2.183,0,0,0-.135-.424v-.228a.277.277,0,0,1-.03-.125c0-.045,0-.087,0-.127a8.655,8.655,0,0,1,.042-.879c.03-.3.085-.608.133-.93s.075-.664.105-1,.047-.676.049-1.017a8.97,8.97,0,0,0-.095-1.33,4.9,4.9,0,0,0-.412-1.353,1.4,1.4,0,0,0-.62-.578,1.986,1.986,0,0,0-.913-.21,2.665,2.665,0,0,0-.276.014,1.156,1.156,0,0,0-.277.068,2.06,2.06,0,0,0-.9,1.059,4.182,4.182,0,0,0-.2,1.262c0,.1,0,.2,0,.29s.018.2.026.287,0,.2,0,.3l0,.294c0,.066,0,.138,0,.219a1.471,1.471,0,0,1-.031.218c-.01.068-.006.156-.017.228a2.263,2.263,0,0,1-.046.226,6.835,6.835,0,0,1,.069.768c.009.26.022.512.041.757v.151a14.031,14.031,0,0,0,.322,2.245,2.534,2.534,0,0,0,1.283,1.6l-.081.164q-.666.024-1.289.058c-.416.023-.83.054-1.231.078-.248.015-.492.028-.723.045s-.463.032-.694.046l-.826.049a3.5,3.5,0,0,1-.825.052c-.019-.01-.04-.074-.052-.1a.3.3,0,0,1-.022-.092.38.38,0,0,1,.071-.243c.053-.079.107-.164.16-.256q.028,0,.029-.01c0-.006.009-.015.028-.027.054-.081.108-.16.163-.237a.609.609,0,0,0,.106-.24,13.973,13.973,0,0,0,.223-1.522,17.136,17.136,0,0,0,.079-1.721,26.971,26.971,0,0,0-.285-3.515,23.33,23.33,0,0,0-.806-3.634,1.129,1.129,0,0,1,.7-.471,5.479,5.479,0,0,1,.959-.141.512.512,0,0,0,.116-.014.486.486,0,0,1,.116-.014,1.567,1.567,0,0,0,.218-.014,1.578,1.578,0,0,1,.218-.014A8.2,8.2,0,0,0,355.189,353.323Z" data-name="Path 1211"
                fill="#c9c9c9"
                id="Path_1211" transform="translate(-326.314 -346.951)"/>
          <path d="M385.6,353.27a1.505,1.505,0,0,1,.217,0,1.2,1.2,0,0,0,.189.028h.218q.435,0,.87-.027c.289-.018.626.01.869-.027a1.163,1.163,0,0,1,.159-.027h.131q.492-.026,1-.04t1.029-.012h.478a4.143,4.143,0,0,1,.479.029q.272.722.5,1.429t.446,1.393c.062.159.118.313.169.461s.1.3.139.456q.214.6.443,1.188t.469,1.15a.177.177,0,0,0,.016.06.178.178,0,0,1,.015.06v.12a.921.921,0,0,1-.433.734,1.538,1.538,0,0,1-.994.246h-.147a8.55,8.55,0,0,0-1.17.059c-.39.047-.792.1-1.2.149-.389.051-.79.1-1.2.147a9.937,9.937,0,0,1-1.2.06,6,6,0,0,1-.805-.063,6.717,6.717,0,0,1-.805-.169,1.533,1.533,0,0,1-.249-.346.645.645,0,0,1-.075-.4v-.092a.3.3,0,0,1,.029-.116.316.316,0,0,1,.014-.093.405.405,0,0,1,.043-.093,2.614,2.614,0,0,1,.394-.256.935.935,0,0,1,.452-.116.62.62,0,0,1,.117.013.755.755,0,0,1,.117.037.45.45,0,0,0,.236.4,1.124,1.124,0,0,0,.468.1,1.27,1.27,0,0,0,.175-.01,1.231,1.231,0,0,1,.146-.01.725.725,0,0,0,.146-.01c.038-.008.083-.028.116-.034.077-.014.19-.006.278-.02a1.449,1.449,0,0,1,.248-.021.765.765,0,0,1,.19-.068c.068-.015.141-.03.219-.045a3.338,3.338,0,0,0,.437-.114.335.335,0,0,0,.232-.308q-.119-.217-.223-.438c-.069-.147-.134-.294-.194-.443a1.445,1.445,0,0,1-.1-.212c-.03-.075-.065-.154-.1-.238-.2-.469-.414-.94-.642-1.408a6.19,6.19,0,0,0-.9-1.346.807.807,0,0,0-.219-.067,1.66,1.66,0,0,0-.218-.014.73.73,0,0,0-.493.172,3.017,3.017,0,0,0-.375.383.074.074,0,0,1-.028.053.073.073,0,0,0-.029.052,1.131,1.131,0,0,0-.144.157,1.786,1.786,0,0,1-.144.131,1.463,1.463,0,0,0-.072.17c-.029.061-.053.117-.072.169-.152.4-.3.8-.429,1.2a9.168,9.168,0,0,0-.315,1.209c-.019.161-.038.318-.057.468a3.491,3.491,0,0,0-.028.437,3.115,3.115,0,0,0,.148.964,2.6,2.6,0,0,0,.469.837,5.487,5.487,0,0,0,2.059,1.257,8.541,8.541,0,0,0,2.67.489c.1,0,.19,0,.277,0s.188,0,.277,0c.073,0,.166-.017.264-.02a2.561,2.561,0,0,0,.264-.02.721.721,0,0,0,.131.033.432.432,0,0,0,.132,0,1.963,1.963,0,0,0,.469-.081c.157-.059.306-.134.441-.2s.27-.123.4-.187a.723.723,0,0,1,.338-.09.431.431,0,0,1,.247.08.521.521,0,0,1,.157.3.194.194,0,0,0,.013.061.2.2,0,0,1,.014.06v.138a1.514,1.514,0,0,1-.408,1,2.894,2.894,0,0,1-.995.7,4.505,4.505,0,0,1-1.315.348,12.011,12.011,0,0,1-1.56.082l-.2-.009-.232-.01q-.608-.026-1.185-.089t-1.1-.167a6.937,6.937,0,0,1-2.409-.964,4.047,4.047,0,0,1-1.407-1.616q-.087-.462-.145-.966a8.937,8.937,0,0,1-.059-1.054,10.554,10.554,0,0,1,.721-3.732,7.984,7.984,0,0,1,2.48-3.366Z" data-name="Path 1212"
                fill="#c9c9c9"
                id="Path_1212" transform="translate(-342.301 -346.96)"/>
          <path d="M420.486,353.3a.146.146,0,0,1,.032.071.235.235,0,0,1,.033.086l0,.085a.783.783,0,0,1-.086.367c-.063.132-.135.266-.2.393a4.843,4.843,0,0,0-.2.456,1.174,1.174,0,0,0-.081.482l0,.055,0,.055q-.005.55-.01,1.134c0,.389-.023.786-.043,1.173-.027.528-.039,1.069-.057,1.6s-.024,1.06-.022,1.585a14.831,14.831,0,0,0,.341,3.091,6.294,6.294,0,0,0,1.309,2.671c-.151.068-.227.1-.378.169l-.749-.1c-.25-.033-.507-.075-.75-.1-.225-.022-.475-.04-.724-.072l-.721-.09c-.346-.042-.687-.09-1.022-.142s-.664-.116-.987-.19a8.983,8.983,0,0,0,.553-1.994,14.184,14.184,0,0,0,.171-2.233,22.786,22.786,0,0,0-.21-3.047,31.858,31.858,0,0,0-.594-3.159,1.1,1.1,0,0,0-.576-.629,2.08,2.08,0,0,0-.821-.169c-.136,0-.266,0-.392.011a1.577,1.577,0,0,0-.361.066,5.491,5.491,0,0,0-1.506,2.351,8.468,8.468,0,0,0-.417,2.7c0,.179.008.355.019.53s.027.348.047.517a4.626,4.626,0,0,0,.091.5l.116.5a.615.615,0,0,1,.044.079c.009.022.03.051.043.078.023.049.043.119.072.178s.062.126.1.2a3.443,3.443,0,0,0,.511.748,1.918,1.918,0,0,0,.89.529l.218.055a.8.8,0,0,0,.219.014,2.264,2.264,0,0,0,.6-.066,1.948,1.948,0,0,0,.493-.224.6.6,0,0,1,.336.363,1.323,1.323,0,0,1,.061.488l-.007.1-.007.1a1.807,1.807,0,0,0-.058.2,1.382,1.382,0,0,1-.059.2,1.152,1.152,0,0,1-.537.562,2.611,2.611,0,0,1-.9.325c-.2.017-.4.027-.6.03s-.434-.027-.625-.027a1.832,1.832,0,0,1-.19,0l-.217-.021a8.98,8.98,0,0,1-.919-.138,6.965,6.965,0,0,1-.852-.227,3.262,3.262,0,0,1-1.626-1.418,7.372,7.372,0,0,1-.626-1.907,2.705,2.705,0,0,1-.085-.387c-.019-.13-.039-.261-.057-.394a.194.194,0,0,0-.015-.077.2.2,0,0,1-.015-.078c.019-.177.043-.353.071-.527s.052-.355.07-.542a13.72,13.72,0,0,1,1.337-3.891,6.771,6.771,0,0,1,3.233-3.032q.549-.083,1.084-.123t1.086-.039q.465,0,.93.017c.31.011.619.036.9.045.113,0,.223.006.32.015s.194.015.291.015q.32,0,.625.017t.6.016q.348,0,.7-.011t.7-.04A.507.507,0,0,1,420.486,353.3Z" data-name="Path 1213"
                fill="#c9c9c9"
                id="Path_1213" transform="translate(-356.116 -346.956)"/>
          <path d="M446,353.711a1.219,1.219,0,0,0,.309.046,1.426,1.426,0,0,0,.188-.013,1.062,1.062,0,0,0,.187-.042.7.7,0,0,0,.187-.028c.067-.019.129-.038.186-.057.114-.038.228-.071.343-.1a1.38,1.38,0,0,1,.347-.041.837.837,0,0,1,.631.294q-.1.319-.161.652t-.13.679q-.134.635-.286,1.239a2.817,2.817,0,0,1-.537,1.082q-.116.026-.247.051a1.269,1.269,0,0,1-.277.022,2.044,2.044,0,0,1-.473-.068l-.475-.125c-.159-.041-.308-.083-.446-.124a1.578,1.578,0,0,0-.413-.066,1.028,1.028,0,0,0-.464.1,1.049,1.049,0,0,0-.419.413c-.006.281-.012.567-.02.855s-.019.584-.027.878c-.01.351-.019.7-.033,1.039s-.039.693-.048,1.031c0,.107,0,.218,0,.325s0,.216,0,.323a17.966,17.966,0,0,0,.274,3.156,7.521,7.521,0,0,0,1.2,2.922c-.136.1-.2.142-.341.236l-.8-.148-.8-.145-.172-.03-.172-.03q-.311-.081-.64-.137l-.646-.11q-.632-.107-1.251-.195a11.934,11.934,0,0,0-1.206-.11c-.1-.108-.132-.2-.1-.283a.678.678,0,0,1,.185-.241,1.308,1.308,0,0,0,.131-.087,1.567,1.567,0,0,1,.131-.088,1.635,1.635,0,0,0,.329-.252.547.547,0,0,0,.159-.327l0-.024q.217-.841.359-1.749a16.977,16.977,0,0,0,.211-1.849c.009-.214.009-.439.019-.654s.012-.422.011-.635a16,16,0,0,0-.39-3.435,10.973,10.973,0,0,0-1.309-3.248,1.041,1.041,0,0,0-.123-.141l-.122-.113a.358.358,0,0,1-.091-.057l-.06-.057a.877.877,0,0,1-.262-.313.442.442,0,0,1,.082-.426q.492-.026,1-.024l1,.005q.436,0,.886-.01t.914-.038a2.528,2.528,0,0,1,.189.274c.064.105.128.206.191.3a.2.2,0,0,1,.047.072.191.191,0,0,0,.048.072,3.393,3.393,0,0,0,.383.587,2.037,2.037,0,0,0,.493.445.938.938,0,0,0,.212-.353c.05-.142.1-.288.149-.439a5.567,5.567,0,0,1,.336-.73.624.624,0,0,1,.592-.328,1.376,1.376,0,0,1,.323.045,1.306,1.306,0,0,1,.388.161A1.177,1.177,0,0,0,446,353.711Z" data-name="Path 1214"
                fill="#c9c9c9"
                id="Path_1214" transform="translate(-371.832 -347.053)"/>
        </g>
      </g>
      <path d="M362.852,385.612c-18.635-3.648-46.936-4.627-64.762,2.686-1.646.729-1.005,3.119.277,2.547,15.913-5.515,35.427-5.386,50.929-2.126,5.836,1.252,11.68,4.622,13.28,6.931a4.04,4.04,0,0,0,1.4,1.268c2.524,1.355,6.3,1.038,7.707-1.872C374.571,388.718,365.471,386.011,362.852,385.612Z" data-name="Path 1215"
            fill="#c9c9c9"
            fill-rule="evenodd" id="Path_1215" transform="translate(-66.934 -32.983)"/>
      <g data-name="Group 272" id="Group_272" transform="translate(264.603 320)">
        <g data-name="Group 270" id="Group_270" transform="translate(0)">
          <path d="M372.6,328.49h-3l6.421-8.49h2.049Z" data-name="Path 1216" fill="#c9c9c9"
                id="Path_1216" transform="translate(-369.601 -320)"/>
          <path d="M385.763,328.49h-3L387.2,320h2.049Z" data-name="Path 1217" fill="#c9c9c9"
                id="Path_1217" transform="translate(-376.511 -320)"/>
          <path d="M398.924,328.49h-3l2.457-8.49h2.049Z" data-name="Path 1218" fill="#c9c9c9"
                id="Path_1218" transform="translate(-383.421 -320)"/>
          <path d="M412.086,328.49h-3l.476-8.49h2.049Z" data-name="Path 1219" fill="#c9c9c9"
                id="Path_1219" transform="translate(-390.332 -320)"/>
          <path d="M423.582,328.49h-3L419.075,320h2.049Z" data-name="Path 1220" fill="#c9c9c9"
                id="Path_1220" transform="translate(-395.577 -320)"/>
          <path d="M434.553,328.49h-3L428.064,320h2.049Z" data-name="Path 1221" fill="#c9c9c9"
                id="Path_1221" transform="translate(-400.297 -320)"/>
          <path d="M445.523,328.49h-3l-5.47-8.49H439.1Z" data-name="Path 1222" fill="#c9c9c9"
                id="Path_1222" transform="translate(-405.016 -320)"/>
        </g>
        <g data-name="Group 271" id="Group_271" transform="translate(0 9.008)">
          <path d="M371.167,344.469h-.132a1.434,1.434,0,0,1-1.434-1.434v-4.069h3v4.069A1.434,1.434,0,0,1,371.167,344.469Z" data-name="Path 1223"
                fill="#c9c9c9"
                id="Path_1223" transform="translate(-369.601 -338.966)"/>
          <path d="M384.262,344.469h0a1.5,1.5,0,0,1-1.5-1.5v-4h3v4A1.5,1.5,0,0,1,384.262,344.469Z" data-name="Path 1224"
                fill="#c9c9c9"
                id="Path_1224" transform="translate(-376.511 -338.966)"/>
          <path d="M397.424,344.469h0a1.5,1.5,0,0,1-1.5-1.5v-4h3v4A1.5,1.5,0,0,1,397.424,344.469Z" data-name="Path 1225"
                fill="#c9c9c9"
                id="Path_1225" transform="translate(-383.422 -338.966)"/>
          <path d="M410.585,344.469h0a1.5,1.5,0,0,1-1.5-1.5v-4h3v4A1.5,1.5,0,0,1,410.585,344.469Z" data-name="Path 1226"
                fill="#c9c9c9"
                id="Path_1226" transform="translate(-390.332 -338.966)"/>
          <path d="M423.747,344.469h0a1.5,1.5,0,0,1-1.5-1.5v-4h3v4A1.5,1.5,0,0,1,423.747,344.469Z" data-name="Path 1227"
                fill="#c9c9c9"
                id="Path_1227" transform="translate(-397.242 -338.966)"/>
          <path d="M436.908,344.469h0a1.5,1.5,0,0,1-1.5-1.5v-4h3v4A1.5,1.5,0,0,1,436.908,344.469Z" data-name="Path 1228"
                fill="#c9c9c9"
                id="Path_1228" transform="translate(-404.153 -338.966)"/>
          <path d="M450.135,344.469H450a1.435,1.435,0,0,1-1.435-1.434v-4.069h3v4.069A1.434,1.434,0,0,1,450.135,344.469Z" data-name="Path 1229"
                fill="#c9c9c9"
                id="Path_1229" transform="translate(-411.063 -338.966)"/>
        </g>
      </g>
    </g>
  </g>
</svg>
