<svg height="57" viewBox="0 0 164 57" width="164" xmlns="http://www.w3.org/2000/svg">
  <defs>
    <clipPath id="clip-Ebonear_green">
      <rect height="57" width="164"/>
    </clipPath>
  </defs>
  <g clip-path="url(#clip-Ebonear_green)" id="Ebonear_green">
    <g data-name="Group 1667" id="Group_1667" transform="translate(-169.621 -320)">
      <text data-name="ONLINE SHOPS" fill="#06b37b" font-family="Lato-Medium, Lato" font-size="6"
            font-weight="500" id="ONLINE_SHOPS" letter-spacing="0.069em" transform="translate(243.128 370.053)">
        <tspan x="0" y="0">ONLINE SHOPS</tspan>
      </text>
      <path d="M245.867,339.148a9.46,9.46,0,0,1-.062,3.6c-.17,1.991-.385,3.978-.583,5.966-.157,1.584-.289,3.17-.483,4.749a3.7,3.7,0,0,1-2.918,3.08c-.857.186-1.721.342-2.582.511q-9.132,1.789-18.265,3.58a3.134,3.134,0,0,1-1.992-.16,2.263,2.263,0,0,1-.986-3.161,3.919,3.919,0,0,1,2.929-2.264c2.168-.438,4.342-.854,6.513-1.275q4-.776,8.009-1.545c.276-.052,1.149-.28,1.26-.315a3.588,3.588,0,0,0,2.454-3.083c.049-.577.106-1.155.192-1.728a2.232,2.232,0,0,0-2.428-2.5,5.111,5.111,0,0,0-.805.123q-12.189,2.386-24.378,4.776c-.849.166-1.7.342-2.547.5-.278.051-.388.137-.353.457.326,3.071.626,6.144.946,9.215.231,2.224.481,4.445.721,6.668.049.454.091.909.142,1.363a2.268,2.268,0,0,0,2.638,1.9c.416-.048.827-.148,1.24-.229q4.312-.842,8.624-1.686c.305-.06,2.339-.442,2.728-.52,4.715-.938,9.435-1.853,14.153-2.777a3.191,3.191,0,0,1,2,.159,2.383,2.383,0,0,1,1.157,3.227,3.811,3.811,0,0,1-2.928,2.358c-3.794.756-7.591,1.494-11.387,2.238q-10.37,2.033-20.739,4.066a3.078,3.078,0,0,1-1.99-.159,2.054,2.054,0,0,1-1.226-1.725c-.152-1.4-.294-2.8-.433-4.2q-.212-2.139-.41-4.278c-.238-2.533-.468-5.066-.71-7.6-.192-2-.4-4.006-.6-6.01-.243-2.545-.468-5.091-.711-7.636-.164-1.721-.369-3.438-.512-5.161a2.113,2.113,0,0,0-2.6-1.91c-.807.114-1.6.3-2.4.458-2.486.486-4.974.968-7.459,1.463a2.854,2.854,0,0,1-1.844-.172,2.023,2.023,0,0,1-.868-2.7,3.931,3.931,0,0,1,2.975-2.365c3.6-.723,7.2-1.412,10.807-2.115,1.334-.261,2.666-.531,4-.783a2.7,2.7,0,0,1,1.9.258,1.9,1.9,0,0,1,.995,1.555c.042.476.244,2.512.268,2.741.211,2.064.448,4.127.637,6.193a2.168,2.168,0,0,0,2.668,1.989c2.336-.412,4.661-.89,6.99-1.345q12.61-2.461,25.218-4.926a2.716,2.716,0,0,1,2.558.592c.178.168.325.369.486.555Z" data-name="Path 1198"
            fill="#06b37b"
            id="Path_1198" transform="translate(-7.211 -5.002)"/>
      <path d="M182.267,386.832c.79-.143,1.578-.3,2.367-.454q3.6-.7,7.2-1.417a.73.73,0,0,1,.854.254,1.312,1.312,0,0,1,.073,1.266,1.155,1.155,0,0,1-.573.283c-1.9.385-3.807.752-5.711,1.125q-5.823,1.138-11.644,2.277c-.3.058-.619.175-.862-.122a1.173,1.173,0,0,1-.223-1.248.872.872,0,0,1,.566-.391c1.706-.356,3.418-.676,5.126-1.022C179.744,387.323,181.867,386.9,182.267,386.832Z" data-name="Path 1199"
            fill="#06b37b"
            id="Path_1199" transform="translate(-1.759 -28.295)"/>
      <path d="M236.8,411.037a2.647,2.647,0,0,1,3.1,2.13,2.659,2.659,0,1,1-5.225.991A2.633,2.633,0,0,1,236.8,411.037Z" data-name="Path 1200"
            fill="#06b37b"
            id="Path_1200" transform="translate(-28.326 -39.654)"/>
      <path d="M269.306,404.679a2.645,2.645,0,0,1,3.095,2.13,2.659,2.659,0,1,1-5.224.991A2.632,2.632,0,0,1,269.306,404.679Z" data-name="Path 1201"
            fill="#06b37b"
            id="Path_1201" transform="translate(-42.492 -36.883)"/>
      <path d="M191.438,370.127q2.4-.469,4.8-.938c.544-.106.859.128.987.723.132.612-.065.974-.622,1.084q-4.837.954-9.678,1.894c-.586.114-.85-.1-.975-.761s.058-.94.646-1.056Q189.019,370.6,191.438,370.127Z" data-name="Path 1202"
            fill="#06b37b"
            id="Path_1202" transform="translate(-7.102 -21.426)"/>
      <path d="M195.926,403.48c-1.454.285-2.91.564-4.362.857a.705.705,0,0,1-.877-.342,1.153,1.153,0,0,1-.006-1.221.809.809,0,0,1,.406-.221c2.992-.594,5.986-1.175,8.978-1.765a.585.585,0,0,1,.717.313,2.354,2.354,0,0,1,.185.924c-.006.344-.258.525-.605.591C198.882,402.9,197.4,403.191,195.926,403.48Z" data-name="Path 1203"
            fill="#06b37b"
            id="Path_1203" transform="translate(-9.103 -35.199)"/>
      <path d="M175.405,374.356c.411-.081.824-.151,1.232-.245a.613.613,0,0,1,.762.362,2.238,2.238,0,0,1,.162.855.572.572,0,0,1-.513.585c-.871.168-1.738.353-2.612.507-.489.085-.75-.186-.86-.827-.1-.553.091-.888.56-.987C174.559,374.517,174.982,374.439,175.405,374.356Z" data-name="Path 1204"
            fill="#06b37b"
            id="Path_1204" transform="translate(-1.713 -23.571)"/>
      <path d="M184.279,404.852c.4-.078.8-.16,1.2-.234.481-.089.642,0,.85.437.357.755.117,1.255-.679,1.411-.74.146-1.479.293-2.22.432-.524.1-.855-.162-.974-.753s.091-.946.622-1.057C183.478,405,183.879,404.931,184.279,404.852Z" data-name="Path 1205"
            fill="#06b37b"
            id="Path_1205" transform="translate(-5.58 -36.862)"/>
      <path d="M179.9,407.029a.906.906,0,0,1-.7,1.056.918.918,0,0,1-1.07-.732.9.9,0,1,1,1.77-.324Z" data-name="Path 1206"
            fill="#06b37b"
            id="Path_1206" transform="translate(-3.7 -37.602)"/>
      <path d="M183.511,374.079a.869.869,0,0,1-.717,1.061.9.9,0,0,1-1.048-.7.957.957,0,0,1,.725-1.083A.923.923,0,0,1,183.511,374.079Z" data-name="Path 1207"
            fill="#06b37b"
            id="Path_1207" transform="translate(-5.278 -23.245)"/>
      <path d="M169.643,392.938a.887.887,0,0,1,.686-1.086.968.968,0,0,1,1.073.7.942.942,0,0,1-.717,1.086A.862.862,0,0,1,169.643,392.938Z" data-name="Path 1208"
            fill="#06b37b"
            id="Path_1208" transform="translate(0 -31.307)"/>
      <g data-name="Group 269" id="Group_269" transform="translate(242.176 331.34)">
        <g data-name="Group 268" id="Group_268" transform="translate(0 0)">
          <path d="M304.826,340.134c.057.046.121.091.189.137v.034a.254.254,0,0,0,.069.052c.023.012.061.033.068.051a1.078,1.078,0,0,1-.175.7,6.005,6.005,0,0,1-.385.565l-.034.034q-.141.172-.282.359a1.39,1.39,0,0,0-.216.428,47.262,47.262,0,0,0-.875,4.677c-.216,1.608-.383,3.218-.467,4.83q-.047.907-.05,1.824t.012,1.84c.01.617.029,1.231.05,1.82a10.9,10.9,0,0,0,.087,1.741c.038.165.139.377.193.573s.1.388.129.574a.53.53,0,0,1,.06.136.658.658,0,0,1,.025.139,8.436,8.436,0,0,0,.768,1.785,2.238,2.238,0,0,0,1.557,1.036l.086-.012.086-.012a.128.128,0,0,0,.09.017l.086-.012a2.809,2.809,0,0,0,1.411-.6,1.873,1.873,0,0,0,.717-1.008c.054-.262.089-.548.129-.823s.089-.56.111-.827.023-.55.039-.827.021-.555.018-.834a13.518,13.518,0,0,0-.643-3.943,10.88,10.88,0,0,0-1.921-3.575,4.8,4.8,0,0,0-.728-.657q-.367-.263-.736-.494c-.112-.066-.223-.138-.334-.215s-.222-.16-.332-.249a.665.665,0,0,1,.31-.559,1.382,1.382,0,0,1,.6-.124l.208,0,.208,0a.634.634,0,0,0,.206.033l.208,0a1.062,1.062,0,0,0,.381,0,.648.648,0,0,0,.32-.172.33.33,0,0,0,.154.033h.155a1.53,1.53,0,0,0,.665-.157,6.22,6.22,0,0,0,.641-.359c.214-.137.415-.256.6-.359a1.172,1.172,0,0,1,.56-.155.719.719,0,0,1,.408.133,1.121,1.121,0,0,1,.357.471,10.439,10.439,0,0,1,2.13,3.8,13.177,13.177,0,0,1,.566,4.111c-.005.284-.014.577-.041.853s-.045.556-.074.82a13.2,13.2,0,0,1-.419,2.022,15.8,15.8,0,0,1-.651,1.936,4.886,4.886,0,0,1-.935,1.372,3.741,3.741,0,0,1-1.426,1.006,13.041,13.041,0,0,1-1.6.4q-.829.178-1.714.329-.409.07-.837.129t-.871.138q-.443.079-.871.141c-.285.042-.564.087-.836.138q-.851.157-1.677.35a11.585,11.585,0,0,0-1.579.485c-.077-.031-.147-.057-.21-.078a.491.491,0,0,1-.182-.12l-.095-.121a.3.3,0,0,1-.059-.128.728.728,0,0,1,.087-.486c.089-.166.191-.34.3-.518.093-.151.181-.3.263-.454a.889.889,0,0,0,.133-.428c-.023-.92-.152-1.935-.211-2.871s-.088-1.865-.1-2.787c-.005-.607,0-1.218.008-1.829s.005-1.236.016-1.838c.011-.557.043-1.144.061-1.725s.024-1.17.047-1.729c.037-.9.105-1.83.143-2.747a14.794,14.794,0,0,1,.139-2.822.717.717,0,0,0,.043-.155c0-.058.006-.109.008-.155a1.088,1.088,0,0,0-.11-.533,2.755,2.755,0,0,0-.285-.5,4.594,4.594,0,0,1-.325-.412.714.714,0,0,1-.12-.412.441.441,0,0,1,.06-.223.777.777,0,0,1,.2-.19.813.813,0,0,1,.158-.12,1.007,1.007,0,0,1,.192-.086,6.576,6.576,0,0,0,2.2-.654q1.023-.515,1.989-1.1a.1.1,0,0,0,.069-.034.1.1,0,0,1,.069-.034q.344-.206.67-.411t.669-.376A.2.2,0,0,1,304.826,340.134Z" data-name="Path 1209"
                fill="#06b37b"
                id="Path_1209" transform="translate(-298.219 -340.099)"/>
          <path d="M330.2,353.392a11.24,11.24,0,0,0,1.22.113c.2,0,.408,0,.6.015s.4.015.6.015a16.262,16.262,0,0,0,1.8-.1q.9-.1,1.694-.236a7.031,7.031,0,0,1,2.081,3.2,13.5,13.5,0,0,1,.606,3.65c0,.078,0,.156,0,.233s0,.155,0,.231q-.008.6-.063,1.174c-.037.38-.08.746-.126,1.1a6.168,6.168,0,0,1-2.029,3.371,11.953,11.953,0,0,1-3.879,2.3,9.018,9.018,0,0,1-4.634-1.741,5.657,5.657,0,0,1-2.343-3.789v-.116c0-.154,0-.3-.014-.454s0-.319-.015-.467c-.01-.13-.032-.292-.03-.455s0-.315.007-.459a13.612,13.612,0,0,1,.754-4.189,7.835,7.835,0,0,1,2.592-3.576Q329.6,353.31,330.2,353.392Zm4.254,4.422a1.583,1.583,0,0,1-.15-.232,9.88,9.88,0,0,0-1.458-1.684,3.142,3.142,0,0,0-2.207-.712H330.5a1.876,1.876,0,0,0-.921.621,4.775,4.775,0,0,0-.552.9.147.147,0,0,1-.02.064.144.144,0,0,0-.02.064l0,.128,0,.128c0,.043,0,.085,0,.128s0,.085,0,.127l-.009.254c0,.085-.006.18-.009.285a10.488,10.488,0,0,0,1.008,4.486,5.709,5.709,0,0,0,3.415,2.825,1.39,1.39,0,0,0,.351.106,3.567,3.567,0,0,0,.42.053l.1-.006.1-.005a1.821,1.821,0,0,0,.467-.084.929.929,0,0,0,.361-.2,4.245,4.245,0,0,0,.538-1.127,4.111,4.111,0,0,0,.172-1.162,6.6,6.6,0,0,0-.332-2.04q-.333-1.041-.726-2.109c-.045-.1-.082-.2-.115-.29a2.826,2.826,0,0,0-.114-.292A1.366,1.366,0,0,0,334.45,357.813Z" data-name="Path 1210"
                fill="#06b37b"
                id="Path_1210" transform="translate(-310.177 -345.806)"/>
          <path d="M355.839,353.356c.435.021.872.031,1.308.03s.867-.012,1.292-.035.856-.056,1.293-.1a3.347,3.347,0,0,0,.344-.017c.115-.011.233-.013.345-.016.357-.011.729-.039,1.085-.051s.717-.017,1.084-.018q.723,0,1.5.065a12.143,12.143,0,0,1,1.532.23c-.024.328-.058.664-.1.994s-.074.662-.105.968c-.054.533-.14,1.085-.211,1.615s-.139,1.061-.177,1.564c-.03.406-.048.82-.072,1.22s-.036.793-.036,1.177a10.4,10.4,0,0,0,.538,3.51,5.194,5.194,0,0,0,1.993,2.536c-.041.082-.062.124-.1.2-2.067.016-3.1.036-5.166.1a1.586,1.586,0,0,1-.688-.618,2.564,2.564,0,0,1-.274-.76,1.042,1.042,0,0,0-.02-.191,1.382,1.382,0,0,1-.02-.174,4.206,4.206,0,0,0-.093-.526,2.592,2.592,0,0,0-.16-.5v-.271a.328.328,0,0,1-.036-.148c0-.054,0-.1,0-.151a10.282,10.282,0,0,1,.05-1.044c.036-.354.1-.722.158-1.1s.089-.788.125-1.188.056-.8.058-1.208a10.658,10.658,0,0,0-.112-1.58,5.823,5.823,0,0,0-.49-1.607,1.664,1.664,0,0,0-.737-.687,2.358,2.358,0,0,0-1.085-.25,3.164,3.164,0,0,0-.328.016,1.372,1.372,0,0,0-.33.081,2.447,2.447,0,0,0-1.069,1.258,4.967,4.967,0,0,0-.243,1.5c0,.12,0,.235,0,.344s.021.234.03.341,0,.236,0,.353,0,.234,0,.35c0,.078,0,.164,0,.26a1.75,1.75,0,0,1-.037.259c-.012.081-.007.186-.02.271a2.7,2.7,0,0,1-.054.268,8.117,8.117,0,0,1,.082.912c.01.309.026.608.049.9v.179a16.67,16.67,0,0,0,.383,2.667,3.01,3.01,0,0,0,1.524,1.9c-.038.079-.058.118-.1.2q-.791.029-1.531.069c-.494.027-.986.064-1.462.093-.294.018-.584.033-.859.053s-.55.038-.825.054l-.981.058a4.155,4.155,0,0,1-.979.062c-.023-.012-.047-.088-.061-.123a.358.358,0,0,1-.026-.109.451.451,0,0,1,.084-.289c.063-.094.127-.195.19-.3q.034,0,.034-.012c0-.007.011-.017.033-.032.064-.1.129-.19.193-.282a.724.724,0,0,0,.126-.285,16.608,16.608,0,0,0,.265-1.808,20.351,20.351,0,0,0,.094-2.045,32.041,32.041,0,0,0-.339-4.175,27.72,27.72,0,0,0-.957-4.317,1.341,1.341,0,0,1,.837-.56,6.5,6.5,0,0,1,1.139-.167.608.608,0,0,0,.138-.017.577.577,0,0,1,.138-.017,1.855,1.855,0,0,0,.259-.017,1.875,1.875,0,0,1,.259-.017A9.749,9.749,0,0,0,355.839,353.356Z" data-name="Path 1211"
                fill="#06b37b"
                id="Path_1211" transform="translate(-321.538 -345.786)"/>
          <path d="M386.24,353.29a1.781,1.781,0,0,1,.258,0,1.445,1.445,0,0,0,.224.033h.258q.517,0,1.033-.032c.344-.021.744.012,1.033-.032a1.371,1.371,0,0,1,.189-.032h.155q.585-.031,1.187-.047t1.223-.015h.568a4.937,4.937,0,0,1,.569.034q.323.858.6,1.7t.53,1.655c.073.188.14.372.2.547s.116.357.165.542q.254.709.526,1.412t.557,1.367a.212.212,0,0,0,.019.072.211.211,0,0,1,.018.072v.143a1.094,1.094,0,0,1-.514.872,1.827,1.827,0,0,1-1.18.292h-.069l-.1,0a10.152,10.152,0,0,0-1.39.071c-.464.055-.941.113-1.425.177-.462.061-.938.121-1.425.174a11.787,11.787,0,0,1-1.425.071,7.136,7.136,0,0,1-.956-.075,8,8,0,0,1-.956-.2,1.824,1.824,0,0,1-.3-.411.766.766,0,0,1-.089-.475v-.109a.361.361,0,0,1,.034-.138.375.375,0,0,1,.017-.111.481.481,0,0,1,.051-.111,3.1,3.1,0,0,1,.468-.3,1.11,1.11,0,0,1,.537-.138.741.741,0,0,1,.139.015.9.9,0,0,1,.139.043.534.534,0,0,0,.28.478,1.336,1.336,0,0,0,.556.116,1.516,1.516,0,0,0,.208-.012,1.464,1.464,0,0,1,.174-.012.858.858,0,0,0,.174-.012c.046-.009.1-.033.138-.041.092-.017.226-.007.33-.024a1.72,1.72,0,0,1,.3-.025.912.912,0,0,1,.226-.081c.081-.017.167-.035.26-.053a3.966,3.966,0,0,0,.52-.135.4.4,0,0,0,.275-.366q-.141-.258-.265-.52c-.082-.174-.16-.35-.23-.526a1.727,1.727,0,0,1-.125-.252c-.036-.089-.077-.183-.124-.283-.237-.557-.491-1.117-.763-1.672a7.354,7.354,0,0,0-1.071-1.6.956.956,0,0,0-.26-.08,1.97,1.97,0,0,0-.259-.016.867.867,0,0,0-.585.2,3.589,3.589,0,0,0-.445.455.088.088,0,0,1-.034.063.087.087,0,0,0-.034.062,1.336,1.336,0,0,0-.171.187,2.112,2.112,0,0,1-.172.155,1.748,1.748,0,0,0-.085.2c-.034.073-.063.139-.085.2-.181.472-.351.948-.509,1.425a10.886,10.886,0,0,0-.374,1.436c-.023.192-.045.378-.067.556a4.151,4.151,0,0,0-.033.519,3.7,3.7,0,0,0,.176,1.145,3.09,3.09,0,0,0,.557.995,6.517,6.517,0,0,0,2.446,1.493,10.144,10.144,0,0,0,3.171.581c.115,0,.226,0,.329,0s.223,0,.329,0c.086,0,.2-.02.313-.024a3.034,3.034,0,0,0,.313-.024.86.86,0,0,0,.156.039.514.514,0,0,0,.156-.006,2.33,2.33,0,0,0,.557-.1c.186-.07.364-.16.524-.239s.32-.147.472-.222a.86.86,0,0,1,.4-.107.512.512,0,0,1,.294.1.618.618,0,0,1,.186.355.231.231,0,0,0,.016.072.237.237,0,0,1,.016.071l0,.082,0,.082a1.8,1.8,0,0,1-.485,1.183A3.439,3.439,0,0,1,393.6,367a5.351,5.351,0,0,1-1.562.413,14.267,14.267,0,0,1-1.853.1l-.241-.011-.275-.012q-.722-.03-1.408-.106t-1.3-.2a8.24,8.24,0,0,1-2.862-1.145,4.808,4.808,0,0,1-1.671-1.919q-.1-.549-.173-1.148a10.609,10.609,0,0,1-.07-1.252,12.538,12.538,0,0,1,.857-4.433,9.484,9.484,0,0,1,2.946-4Z" data-name="Path 1212"
                fill="#06b37b"
                id="Path_1212" transform="translate(-334.808 -345.794)"/>
          <path d="M422.74,353.331a.173.173,0,0,1,.038.084.279.279,0,0,1,.039.1l0,.1a.93.93,0,0,1-.1.436c-.074.156-.161.315-.239.467a5.743,5.743,0,0,0-.235.542,1.394,1.394,0,0,0-.1.573l0,.065,0,.065q-.006.653-.012,1.347c0,.463-.028.933-.051,1.393-.032.627-.046,1.27-.067,1.9s-.029,1.259-.027,1.883a17.625,17.625,0,0,0,.405,3.671,7.477,7.477,0,0,0,1.554,3.173c-.179.081-.269.121-.449.2l-.89-.121c-.3-.039-.6-.089-.891-.117-.267-.026-.564-.048-.86-.085l-.857-.107c-.411-.05-.816-.107-1.214-.169s-.789-.138-1.172-.225a10.676,10.676,0,0,0,.657-2.369,16.847,16.847,0,0,0,.2-2.653,27.063,27.063,0,0,0-.249-3.62,37.829,37.829,0,0,0-.706-3.753,1.312,1.312,0,0,0-.684-.748,2.472,2.472,0,0,0-.975-.2c-.162,0-.316,0-.466.014a1.873,1.873,0,0,0-.429.078,6.523,6.523,0,0,0-1.789,2.792,10.061,10.061,0,0,0-.495,3.213c0,.212.01.422.022.63s.032.413.056.614a5.493,5.493,0,0,0,.108.6c.046.2.092.394.138.588a.729.729,0,0,1,.052.094c.011.026.036.06.051.093.028.058.051.142.085.212s.073.15.119.237a4.09,4.09,0,0,0,.607.889,2.278,2.278,0,0,0,1.057.629l.258.065a.946.946,0,0,0,.26.016,2.688,2.688,0,0,0,.718-.079,2.314,2.314,0,0,0,.586-.266.718.718,0,0,1,.4.432,1.57,1.57,0,0,1,.072.58l-.008.122-.008.122a2.152,2.152,0,0,0-.069.238,1.635,1.635,0,0,1-.071.234,1.369,1.369,0,0,1-.638.668,3.1,3.1,0,0,1-1.07.386c-.235.02-.473.032-.717.036s-.516-.032-.743-.032a2.184,2.184,0,0,1-.226,0l-.258-.025a10.659,10.659,0,0,1-1.091-.164,8.265,8.265,0,0,1-1.012-.27,3.875,3.875,0,0,1-1.931-1.685,8.76,8.76,0,0,1-.744-2.266,3.222,3.222,0,0,1-.1-.46c-.023-.154-.046-.31-.068-.468a.231.231,0,0,0-.017-.092.232.232,0,0,1-.018-.092c.023-.21.051-.419.085-.626s.062-.422.084-.644a16.3,16.3,0,0,1,1.588-4.622,8.044,8.044,0,0,1,3.841-3.6q.652-.1,1.288-.146t1.29-.046q.552,0,1.1.02c.368.013.736.042,1.07.054.134.005.265.007.38.018s.23.017.345.018q.38,0,.742.02t.708.019q.413,0,.827-.014t.826-.047A.6.6,0,0,1,422.74,353.331Z" data-name="Path 1213"
                fill="#06b37b"
                id="Path_1213" transform="translate(-346.274 -345.791)"/>
          <path d="M447.427,353.78a1.449,1.449,0,0,0,.367.054,1.7,1.7,0,0,0,.223-.016,1.263,1.263,0,0,0,.222-.05.834.834,0,0,0,.222-.033c.08-.023.153-.045.221-.068.136-.045.271-.084.408-.117a1.64,1.64,0,0,1,.412-.049.995.995,0,0,1,.749.349q-.113.379-.191.774t-.155.807q-.159.755-.34,1.471a3.347,3.347,0,0,1-.638,1.286c-.092.021-.19.041-.293.061a1.507,1.507,0,0,1-.329.026,2.427,2.427,0,0,1-.561-.081l-.565-.149c-.188-.049-.366-.1-.53-.147a1.874,1.874,0,0,0-.491-.078,1.221,1.221,0,0,0-.551.123,1.246,1.246,0,0,0-.5.491c-.007.333-.015.673-.024,1.016s-.022.693-.032,1.043c-.012.416-.023.83-.039,1.234s-.046.824-.057,1.224c0,.127,0,.259,0,.386s0,.256,0,.384a21.336,21.336,0,0,0,.325,3.749,8.934,8.934,0,0,0,1.425,3.472c-.161.113-.243.169-.405.28q-.476-.089-.952-.175l-.952-.172-.2-.036-.2-.036q-.369-.1-.761-.163l-.767-.13q-.751-.127-1.486-.231a14.185,14.185,0,0,0-1.433-.131c-.117-.129-.157-.24-.118-.336a.806.806,0,0,1,.22-.287,1.557,1.557,0,0,0,.156-.1,1.854,1.854,0,0,1,.155-.1,1.945,1.945,0,0,0,.391-.3.65.65,0,0,0,.189-.389l0-.028q.257-1,.426-2.078a20.163,20.163,0,0,0,.25-2.2c.011-.254.011-.522.023-.776s.014-.5.014-.755a19,19,0,0,0-.463-4.08,13.034,13.034,0,0,0-1.554-3.858,1.236,1.236,0,0,0-.147-.167l-.144-.134a.426.426,0,0,1-.108-.068l-.072-.068a1.041,1.041,0,0,1-.311-.372.525.525,0,0,1,.1-.506q.585-.03,1.19-.028l1.192.006q.518,0,1.052-.011t1.086-.046a3.009,3.009,0,0,1,.225.325c.076.125.152.245.227.359a.235.235,0,0,1,.056.085.227.227,0,0,0,.056.085,4.034,4.034,0,0,0,.455.7,2.42,2.42,0,0,0,.586.528,1.115,1.115,0,0,0,.252-.419c.059-.168.119-.342.177-.522a6.61,6.61,0,0,1,.4-.868.741.741,0,0,1,.7-.389,1.634,1.634,0,0,1,.383.054,1.551,1.551,0,0,1,.461.191A1.4,1.4,0,0,0,447.427,353.78Z" data-name="Path 1214"
                fill="#06b37b"
                id="Path_1214" transform="translate(-359.319 -345.871)"/>
        </g>
      </g>
      <path d="M375.206,386.137c-22.137-4.334-55.756-5.5-76.931,3.191-1.955.866-1.194,3.705.33,3.025,18.9-6.551,42.084-6.4,60.5-2.526,6.933,1.487,13.874,5.49,15.776,8.233a4.8,4.8,0,0,0,1.664,1.507c3,1.61,7.478,1.233,9.155-2.224C389.127,389.827,378.317,386.611,375.206,386.137Z" data-name="Path 1215"
            fill="#06b37b"
            fill-rule="evenodd" id="Path_1215" transform="translate(-55.557 -27.376)"/>
      <g data-name="Group 272" id="Group_272" transform="translate(282.45 320)">
        <g data-name="Group 270" id="Group_270" transform="translate(0)">
          <path d="M373.165,330.086H369.6L377.228,320h2.434Z" data-name="Path 1216" fill="#06b37b"
                id="Path_1216" transform="translate(-369.601 -320)"/>
          <path d="M386.327,330.086h-3.564L388.036,320h2.434Z" data-name="Path 1217" fill="#06b37b"
                id="Path_1217" transform="translate(-375.337 -320)"/>
          <path d="M399.488,330.086h-3.564L398.843,320h2.434Z" data-name="Path 1218" fill="#06b37b"
                id="Path_1218" transform="translate(-381.072 -320)"/>
          <path d="M412.65,330.086h-3.564L409.65,320h2.434Z" data-name="Path 1219" fill="#06b37b"
                id="Path_1219" transform="translate(-386.808 -320)"/>
          <path d="M424.429,330.086h-3.564L419.075,320h2.434Z" data-name="Path 1220" fill="#06b37b"
                id="Path_1220" transform="translate(-391.162 -320)"/>
          <path d="M435.772,330.086h-3.564L428.064,320H430.5Z" data-name="Path 1221" fill="#06b37b"
                id="Path_1221" transform="translate(-395.079 -320)"/>
          <path d="M447.115,330.086h-3.564L437.053,320h2.434Z" data-name="Path 1222" fill="#06b37b"
                id="Path_1222" transform="translate(-398.996 -320)"/>
        </g>
        <g data-name="Group 271" id="Group_271" transform="translate(0 10.701)">
          <path d="M371.461,345.5H371.3a1.7,1.7,0,0,1-1.7-1.7v-4.834h3.564V343.8A1.7,1.7,0,0,1,371.461,345.5Z" data-name="Path 1223"
                fill="#06b37b"
                id="Path_1223" transform="translate(-369.601 -338.966)"/>
          <path d="M384.544,345.5h0a1.782,1.782,0,0,1-1.782-1.782v-4.755h3.565v4.755A1.782,1.782,0,0,1,384.544,345.5Z" data-name="Path 1224"
                fill="#06b37b"
                id="Path_1224" transform="translate(-375.337 -338.966)"/>
          <path d="M397.706,345.5h0a1.782,1.782,0,0,1-1.782-1.782v-4.755h3.564v4.755A1.782,1.782,0,0,1,397.706,345.5Z" data-name="Path 1225"
                fill="#06b37b"
                id="Path_1225" transform="translate(-381.073 -338.966)"/>
          <path d="M410.867,345.5h0a1.782,1.782,0,0,1-1.782-1.782v-4.755h3.565v4.755A1.782,1.782,0,0,1,410.867,345.5Z" data-name="Path 1226"
                fill="#06b37b"
                id="Path_1226" transform="translate(-386.808 -338.966)"/>
          <path d="M424.029,345.5h0a1.782,1.782,0,0,1-1.782-1.782v-4.755h3.564v4.755A1.782,1.782,0,0,1,424.029,345.5Z" data-name="Path 1227"
                fill="#06b37b"
                id="Path_1227" transform="translate(-392.544 -338.966)"/>
          <path d="M437.19,345.5h0a1.782,1.782,0,0,1-1.782-1.782v-4.755h3.564v4.755A1.782,1.782,0,0,1,437.19,345.5Z" data-name="Path 1228"
                fill="#06b37b"
                id="Path_1228" transform="translate(-398.28 -338.966)"/>
          <path d="M450.43,345.5h-.156a1.7,1.7,0,0,1-1.7-1.7v-4.834h3.565V343.8A1.7,1.7,0,0,1,450.43,345.5Z" data-name="Path 1229"
                fill="#06b37b"
                id="Path_1229" transform="translate(-404.015 -338.966)"/>
        </g>
      </g>
    </g>
  </g>
</svg>
