<svg height="48" viewBox="0 0 48 48" width="48" xmlns="http://www.w3.org/2000/svg">
  <defs>
    <clipPath id="clip-eye_slashed">
      <rect height="48" width="48"/>
    </clipPath>
  </defs>
  <g clip-path="url(#clip-eye_slashed)" id="eye_slashed">
    <path d="M23.956,29.946a10.74,10.74,0,0,1-10.7-9.965L5.405,13.911a24.951,24.951,0,0,0-2.749,4.162,2.422,2.422,0,0,0,0,2.185,24.012,24.012,0,0,0,21.3,13.281,23.254,23.254,0,0,0,5.831-.783L25.9,29.75A10.791,10.791,0,0,1,23.956,29.946ZM47.45,34.3l-8.276-6.4a24.8,24.8,0,0,0,6.083-7.641,2.422,2.422,0,0,0,0-2.185,24.012,24.012,0,0,0-21.3-13.281A23.069,23.069,0,0,0,12.927,7.614L3.4.252a1.2,1.2,0,0,0-1.681.21L.252,2.354a1.2,1.2,0,0,0,.21,1.681L44.51,38.078a1.2,1.2,0,0,0,1.681-.21l1.47-1.892A1.2,1.2,0,0,0,47.45,34.3ZM33.7,23.664,30.754,21.39a7.094,7.094,0,0,0-8.692-9.128,3.567,3.567,0,0,1,.7,2.112,3.492,3.492,0,0,1-.115.749l-5.511-4.259a10.654,10.654,0,0,1,6.824-2.479,10.774,10.774,0,0,1,10.78,10.78,10.525,10.525,0,0,1-1.041,4.5Z" data-name="Icon awesome-eye-slash"
          fill="#c9c9c9"
          id="Icon_awesome-eye-slash" transform="translate(0 5.001)"/>
  </g>
</svg>
