<svg height="48" viewBox="0 0 48 48" width="48" xmlns="http://www.w3.org/2000/svg">
  <defs>
    <clipPath id="clip-filter_ash">
      <rect height="48" width="48"/>
    </clipPath>
  </defs>
  <g clip-path="url(#clip-filter_ash)" id="filter_ash">
    <g id="filter" transform="translate(-3.933 -2.917)">
      <path d="M110.389,84.356h-28.6a5.9,5.9,0,0,0-11.184,0H66.145a1.878,1.878,0,1,0,0,3.755h4.464a5.9,5.9,0,0,0,11.184,0h28.6a1.878,1.878,0,1,0,0-3.755ZM76.2,88.378a2.145,2.145,0,1,1,2.145-2.145A2.147,2.147,0,0,1,76.2,88.378Z" data-name="Path 1231"
            fill="#c9c9c9"
            id="Path_1231" transform="translate(-60.334 -75.418)"/>
      <path d="M110.389,212.889h-4.464a5.9,5.9,0,0,0-11.183,0h-28.6a1.878,1.878,0,1,0,0,3.755h28.6a5.9,5.9,0,0,0,11.184,0h4.464a1.878,1.878,0,1,0,0-3.755Zm-10.056,4.022a2.145,2.145,0,1,1,2.145-2.145A2.147,2.147,0,0,1,100.334,216.911Z" data-name="Path 1232"
            fill="#c9c9c9"
            id="Path_1232" transform="translate(-60.334 -187.862)"/>
      <path d="M110.389,341.422H89.836a5.9,5.9,0,0,0-11.184,0H66.145a1.878,1.878,0,1,0,0,3.755H78.653a5.9,5.9,0,0,0,11.184,0h20.553a1.878,1.878,0,1,0,0-3.755Zm-26.145,4.022a2.145,2.145,0,1,1,2.145-2.145A2.147,2.147,0,0,1,84.245,345.444Z" data-name="Path 1233"
            fill="#c9c9c9"
            id="Path_1233" transform="translate(-60.334 -300.306)"/>
    </g>
  </g>
</svg>
