<svg height="48" viewBox="0 0 48 48" width="48" xmlns="http://www.w3.org/2000/svg">
  <defs>
    <clipPath id="clip-heart_active">
      <rect height="48" width="48"/>
    </clipPath>
  </defs>
  <g clip-path="url(#clip-heart_active)" id="heart_active">
    <path d="M37.671,3.938h-.113A12.836,12.836,0,0,0,26.84,9.8,12.836,12.836,0,0,0,16.123,3.938H16.01A12.755,12.755,0,0,0,3.375,16.686c0,4.174,1.828,10.1,5.393,14.97C15.559,40.941,26.84,49.063,26.84,49.063s11.281-8.123,18.073-17.407c3.565-4.874,5.393-10.8,5.393-14.97A12.755,12.755,0,0,0,37.671,3.938Z" data-name="Icon ionic-ios-heart"
          fill="#ff7171"
          id="Icon_ionic-ios-heart" transform="translate(-2.841 -2.427)"/>
  </g>
</svg>
