<svg height="48" viewBox="0 0 48 48" width="48" xmlns="http://www.w3.org/2000/svg">
  <defs>
    <clipPath id="clip-Llive_chat">
      <rect height="48" width="48"/>
    </clipPath>
  </defs>
  <g clip-path="url(#clip-Llive_chat)" id="Llive_chat">
    <g data-name="Icon simple-wechat" fill="rgba(255,255,255,0.2)" id="Icon_simple-wechat"
       transform="translate(1.082 1.939)">
      <path
        d="M 42.49831008911133 42.03167724609375 L 41.47942733764648 41.54221725463867 C 40.83229064941406 41.2313346862793 40.20372009277344 40.87520599365234 39.59584045410156 40.53079605102539 C 38.74306869506836 40.04764175415039 37.9349365234375 39.58977508544922 37.07187652587891 39.23987197875977 C 35.18980407714844 39.76816177368164 33.37647247314453 40.03588485717773 31.67922973632813 40.03588485717773 C 30.6601505279541 40.03588485717773 29.6651496887207 39.93896484375 28.72163200378418 39.74777603149414 C 26.73052787780762 39.38630676269531 24.79909706115723 38.63718795776367 23.13553810119629 37.58118438720703 C 21.34244918823242 36.44297409057617 19.91610908508301 35.00699615478516 18.89614868164063 33.31315612792969 C 18.61990165710449 32.8598518371582 18.37793159484863 32.39026260375977 18.1711540222168 31.90942192077637 L 17.5423698425293 31.93012619018555 C 17.32033920288086 31.93743515014648 17.09471893310547 31.94114685058594 16.87175941467285 31.94114685058594 C 14.75614547729492 31.94114685058594 12.64312744140625 31.61831665039063 10.58736228942871 30.98122406005859 C 9.897205352783203 31.34822654724121 9.199003219604492 31.7232666015625 8.521919250488281 32.08697509765625 C 7.427878856658936 32.67464447021484 6.296588897705078 33.28231430053711 5.18290901184082 33.8648567199707 L 4.110128879547119 34.42599487304688 L 4.474318981170654 33.27139663696289 C 4.944569110870361 31.78054809570313 5.439708709716797 30.29473304748535 5.98427677154541 28.74065399169922 C 4.53664493560791 27.73352432250977 3.288811922073364 26.54839706420898 2.271408796310425 25.21366500854492 C 1.091646432876587 23.66593742370605 0.2837778031826019 21.9920597076416 -0.1298654824495316 20.23815536499023 C -0.5502015352249146 18.61701774597168 -0.6156105995178223 16.91884613037109 -0.3242310881614685 15.1908655166626 C -0.04488109797239304 13.53421592712402 0.5705488920211792 11.90071582794189 1.455508947372437 10.46697616577148 C 3.316138982772827 7.438255786895752 6.354208946228027 5.045115947723389 10.00951862335205 3.729285955429077 C 12.155348777771 2.953775882720947 14.42344856262207 2.560456037521362 16.75019836425781 2.560456037521362 C 20.13062858581543 2.560456037521362 23.41375923156738 3.402475833892822 26.24466896057129 4.995495796203613 L 26.49945831298828 5.138875961303711 L 26.49945831298828 5.170868873596191 C 28.24737548828125 6.186357498168945 29.80898284912109 7.537624835968018 31.03147888183594 9.095376014709473 C 32.38810729980469 10.82403564453125 33.32435989379883 12.81101608276367 33.73901748657227 14.8415060043335 L 33.85649108886719 15.4167652130127 C 35.75986480712891 15.64711570739746 37.60161209106445 16.19779014587402 39.26977920532227 17.04250526428223 C 42.06967926025391 18.45923614501953 44.24856948852539 20.68259620666504 45.40493774414063 23.30295562744141 C 46.04834747314453 24.73831558227539 46.36496734619141 26.35323524475098 46.31938934326172 27.97048568725586 C 46.273681640625 29.59200859069824 45.86447525024414 31.18255615234375 45.13582992553711 32.5709228515625 C 44.30020904541016 34.27597427368164 42.90919876098633 35.85411834716797 40.99821853637695 37.26609039306641 C 41.4146614074707 38.48836135864258 41.81003570556641 39.72544479370117 42.1750602722168 40.94853591918945 L 42.49831008911133 42.03167724609375 Z M 35.31536483764648 23.79167556762695 C 35.31961059570313 23.80660438537598 35.32386016845703 23.82157707214355 35.32811737060547 23.83658599853516 C 35.43948745727539 24.22903633117676 35.54467010498047 24.59973526000977 35.79168701171875 24.82547569274902 L 35.80373764038086 24.83648681640625 L 35.81504058837891 24.84824562072754 C 36.03845977783203 25.08092498779297 36.36819076538086 25.20904541015625 36.74346923828125 25.20901679992676 C 37.10579681396484 25.208984375 37.52970123291016 25.07430076599121 37.80542373657227 24.78068161010742 L 37.99884033203125 24.43617630004883 C 38.28878021240234 23.91975593566895 38.04829025268555 23.39972686767578 37.93143844604492 23.20010566711426 C 37.66926956176758 22.75225639343262 37.21842956542969 22.46287536621094 36.78285980224609 22.46287536621094 C 36.73595809936523 22.46287536621094 36.6885986328125 22.46614646911621 36.64208984375 22.47261619567871 L 36.61854934692383 22.47588539123535 L 36.59479904174805 22.47691535949707 C 35.90657424926758 22.5065975189209 35.48512649536133 23.17848587036133 35.31536483764648 23.79167556762695 Z M 27.52099800109863 22.45112609863281 C 27.37503814697266 22.45112609863281 27.23241806030273 22.48010635375977 27.09708976745605 22.53725624084473 L 27.07400894165039 22.54701614379883 L 27.05005836486816 22.55440521240234 C 26.6370792388916 22.68190574645996 26.32588958740234 23.04897499084473 26.21759796142578 23.53631591796875 C 26.10837936401367 24.02790641784668 26.23983955383301 24.51408576965332 26.56068801879883 24.80512619018555 L 26.57688903808594 24.81981658935547 L 26.59173965454102 24.83586502075195 C 26.81349945068359 25.07550621032715 27.14028930664063 25.20747566223145 27.51193809509277 25.20747566223145 C 28.01552963256836 25.20747566223145 28.64347839355469 24.93938636779785 28.8321590423584 24.35077667236328 L 28.84004974365234 24.32617568969727 L 28.85041809082031 24.30252647399902 C 29.06601905822754 23.81107521057129 28.85849952697754 23.37076568603516 28.71560859680176 23.15204620361328 C 28.43742942810059 22.72625541687012 27.96851921081543 22.45112609863281 27.52099800109863 22.45112609863281 Z M 22.44206809997559 10.41787624359131 C 22.23106956481934 10.41787624359131 22.02595901489258 10.45724582672119 21.83241844177246 10.5349063873291 L 21.81292915344238 10.5427360534668 L 21.79283905029297 10.54889583587646 C 21.08649826049805 10.76554584503174 20.73973846435547 11.42479610443115 20.6507396697998 11.96951580047607 C 20.56149864196777 12.5157356262207 20.68108940124512 13.25333595275879 21.28435897827148 13.68539619445801 L 21.3076286315918 13.70206546783447 L 21.32884979248047 13.72127628326416 C 21.68666839599609 14.04530620574951 22.09583854675293 14.11331558227539 22.37608909606934 14.11331558227539 C 22.89871978759766 14.11331558227539 23.43622970581055 13.88594627380371 23.81392860412598 13.50508594512939 C 24.03401565551758 13.28317260742188 24.29449653625488 12.91250705718994 24.30221748352051 12.39713096618652 L 24.29543876647949 12.35646629333496 L 24.29984855651855 12.29665565490723 C 24.33308982849121 11.84581565856934 24.16873931884766 11.40091609954834 23.83707809448242 11.04390621185303 C 23.47290802001953 10.65190601348877 22.95141983032227 10.41787624359131 22.44206809997559 10.41787624359131 Z M 10.92508888244629 10.40898609161377 C 10.72991847991943 10.40898609161377 10.53863906860352 10.4445161819458 10.35655879974365 10.5145959854126 L 10.33947849273682 10.52116584777832 L 10.32195854187012 10.52647590637207 C 9.601828575134277 10.74470615386963 9.249439239501953 11.41658592224121 9.159778594970703 11.97259616851807 C 9.070199012756348 12.52811622619629 9.192998886108398 13.27573585510254 9.806319236755371 13.70804595947266 L 9.825408935546875 13.72150611877441 L 9.843169212341309 13.73668575286865 C 10.20555877685547 14.0465259552002 10.61628913879395 14.11155605316162 10.89702892303467 14.11155605316162 C 11.65359878540039 14.11155605316162 12.55804920196533 13.62431621551514 12.74404907226563 12.72132587432861 L 12.74814891815186 12.701416015625 L 12.75385856628418 12.6818962097168 C 12.94926929473877 12.01350593566895 12.64966869354248 11.47503566741943 12.45367908477783 11.21355628967285 C 12.0817289352417 10.71727561950684 11.49599933624268 10.40898609161377 10.92508888244629 10.40898609161377 Z"
        stroke="none"/>
      <path
        d="M 41.69593811035156 41.09152603149414 C 41.2930793762207 39.74164581298828 40.86347961425781 38.40703582763672 40.40523910522461 37.07815551757813 C 42.15416717529297 35.83709716796875 43.73889923095703 34.28863525390625 44.68975067138672 32.34495544433594 C 46.11027908325195 29.64327621459961 46.19619750976563 26.2905158996582 44.9474983215332 23.50482559204102 C 43.78472900390625 20.86996650695801 41.59092712402344 18.7773551940918 39.04389953613281 17.48857688903809 C 36.81391525268555 16.35937309265137 34.31457901000977 15.79371452331543 31.81460380554199 15.79371452331543 C 29.27588081359863 15.79371452331543 26.73650169372559 16.37701988220215 24.47772979736328 17.54584503173828 C 21.36362838745117 19.14394569396973 18.76314926147461 22.00792503356934 18.02614974975586 25.4924259185791 C 17.41898918151855 28.05854606628418 17.96313858032227 30.82132530212402 19.32448959350586 33.05522537231445 C 21.35026931762695 36.41943740844727 25.01233863830566 38.56741714477539 28.81569862365723 39.25667572021484 C 29.76244163513184 39.44891357421875 30.72085952758789 39.53588485717773 31.67922592163086 39.53588485717773 C 33.50982284545898 39.53588485717773 35.34129333496094 39.21882629394531 37.09830856323242 38.7125244140625 C 38.70594787597656 39.33495712280273 40.137939453125 40.34307479858398 41.69593811035156 41.09152603149414 M 36.78285980224609 21.96287155151367 C 38.04006576538086 21.96287155151367 39.08807754516602 23.51741790771484 38.43482971191406 24.68095588684082 L 38.4626350402832 24.68095588684082 C 38.46290588378906 24.68034172058105 38.46319961547852 24.6796703338623 38.46347045898438 24.67905616760254 L 38.46347045898438 24.68095588684082 L 38.4626350402832 24.68095588684082 C 38.17049789428711 25.3473072052002 37.45193481445313 25.70896148681641 36.74350738525391 25.70901489257813 C 36.26409149169922 25.70905113220215 35.7894172668457 25.54345893859863 35.45438766479492 25.19456672668457 C 35.05533981323242 24.82988548278809 34.93887710571289 24.28000640869141 34.79758834838867 23.80076599121094 C 34.99614715576172 22.92629623413086 35.5994873046875 22.01937675476074 36.57324981689453 21.97737503051758 C 36.64357376098633 21.96759986877441 36.71355438232422 21.96287155151367 36.78285980224609 21.96287155151367 M 27.52099609375 21.95112800598145 C 28.72818756103516 21.95112800598145 29.83360290527344 23.30596160888672 29.30829811096191 24.50339508056641 C 29.06228446960449 25.27087783813477 28.28057861328125 25.70747756958008 27.51193428039551 25.70747756958008 C 27.0338249206543 25.70747756958008 26.56083297729492 25.53863716125488 26.22475814819336 25.17546653747559 C 25.25863838195801 24.29909515380859 25.63477897644043 22.46806526184082 26.90255928039551 22.07665634155273 C 27.10656547546387 21.9904956817627 27.31532669067383 21.95112800598145 27.52099609375 21.95112800598145 M 4.951159000396729 33.42180633544922 C 6.812748908996582 32.44806671142578 8.674328804016113 31.43039512634277 10.53781890869141 30.44136619567871 C 12.56665420532227 31.09163856506348 14.71396827697754 31.44114303588867 16.87175369262695 31.44114303588867 C 17.08985328674316 31.44114303588867 17.30769920349121 31.43758201599121 17.52590942382813 31.43039512634277 C 16.89583969116211 29.62991523742676 16.75263977050781 27.67859649658203 17.03903961181641 25.79600524902344 C 17.46862983703613 23.17833518981934 18.90061950683594 20.78405570983887 20.8462085723877 19.01029586791992 C 23.82187652587891 16.22600173950195 27.91708183288574 14.89561939239502 31.95197296142578 14.89561939239502 C 32.38562774658203 14.89561939239502 32.81832504272461 14.91097354888916 33.24913024902344 14.9415454864502 C 32.41666793823242 10.86516571044922 29.55269813537598 7.420755863189697 25.94790840148926 5.43315601348877 L 25.99945831298828 5.43315601348877 L 25.99945831298828 5.431245803833008 C 23.18813705444336 3.849245548248291 19.96927642822266 3.060456037521362 16.75020408630371 3.060456037521362 C 14.51459789276123 3.060456037521362 12.2791919708252 3.440675258636475 10.17886924743652 4.19973611831665 C 6.81083869934082 5.412146091461182 3.763568878173828 7.665145874023438 1.880988955497742 10.72959613800049 C 0.1721488982439041 13.49810600280762 -0.4674710929393768 16.95014572143555 0.3554388880729675 20.11769676208496 C 1.182178854942322 23.63083648681641 3.622278928756714 26.57690620422363 6.583629131317139 28.54351615905762 C 6.010838985443115 30.16642570495605 5.466679096221924 31.78743553161621 4.951159000396729 33.42180633544922 M 22.44207000732422 9.917873382568359 C 23.70445251464844 9.917873382568359 24.89628028869629 11.00710105895996 24.79849815368652 12.33341598510742 L 24.80231857299805 12.35632610321045 L 24.80231857299805 12.35633563995361 C 24.81315422058105 13.65833568572998 23.582763671875 14.61331748962402 22.37608909606934 14.61331748962402 C 21.88225173950195 14.61331748962402 21.39245223999023 14.4534158706665 20.99322891235352 14.09189605712891 C 19.56696891784668 13.07041549682617 19.97174835205078 10.58448600769043 21.64621925354004 10.070876121521 C 21.90702819824219 9.966219902038574 22.17612266540527 9.917873382568359 22.44207000732422 9.917873382568359 M 10.92509365081787 9.90898609161377 C 12.35292339324951 9.90898609161377 13.6630687713623 11.35380840301514 13.23376846313477 12.82220554351807 C 13.01005840301514 13.90825080871582 11.94722557067871 14.61155891418457 10.89702796936035 14.61155891418457 C 10.40556812286377 14.61155891418457 9.916923522949219 14.45757579803467 9.518248558044434 14.11672592163086 C 8.06907844543457 13.09523582458496 8.47575855255127 10.56348609924316 10.17695903778076 10.04796600341797 C 10.42417526245117 9.952816963195801 10.67644596099854 9.90898609161377 10.92509365081787 9.90898609161377 M 43.30068969726563 42.97183609008789 L 41.26292037963867 41.99291610717773 C 40.60052871704102 41.67470550537109 39.9644775390625 41.31433486938477 39.34936904907227 40.96582412719727 C 38.56363296508789 40.52065277099609 37.81654357910156 40.09736633300781 37.03934478759766 39.7677001953125 C 35.17303466796875 40.27759552001953 33.37152862548828 40.53588485717773 31.67922973632813 40.53588485717773 C 30.62852668762207 40.53588485717773 29.60172653198242 40.43593215942383 28.62699317932129 40.2387580871582 C 26.57497406005859 39.865478515625 24.58354187011719 39.09258270263672 22.86757850646973 38.00332641601563 C 21.00922393798828 36.82368087768555 19.52945709228516 35.33332061767578 18.46923065185547 33.57343292236328 C 18.24104118347168 33.19879150390625 18.03522491455078 32.81351089477539 17.85229682922363 32.42018508911133 L 17.55883979797363 32.42985534667969 C 17.33142852783203 32.43734741210938 17.10026931762695 32.44114685058594 16.87175941467285 32.44114685058594 C 14.77460384368896 32.44114685058594 12.68017292022705 32.1313591003418 10.63957786560059 31.51984024047852 C 10.00996494293213 31.85522651672363 9.37546443939209 32.1960563659668 8.758519172668457 32.52744674682617 C 7.663289070129395 33.11575698852539 6.530778884887695 33.72409439086914 5.41464900970459 34.30790710449219 L 3.269098997116089 35.43017578125 L 3.99747896194458 33.12099456787109 C 4.433376312255859 31.73904991149902 4.890570640563965 30.36147308349609 5.388427257537842 28.93040466308594 C 4.029334545135498 27.94230842590332 2.849267721176147 26.79654502868652 1.873758912086487 25.51677513122559 C 0.6522741317749023 23.91431999206543 -0.1851160228252411 22.17880630493164 -0.6153348088264465 20.35794448852539 C -1.052164673805237 18.6699161529541 -1.120094299316406 16.90359115600586 -0.8172711133956909 15.10772609710693 C -0.5272911190986633 13.38804626464844 0.1114988997578621 11.69248580932617 1.030038952827454 10.20435619354248 C 2.949278831481934 7.080215930938721 6.078508853912354 4.612946033477783 9.840168952941895 3.258846044540405 C 12.04005908966064 2.463795900344849 14.36532878875732 2.060456037521362 16.75019836425781 2.060456037521362 C 20.21633911132813 2.060456037521362 23.58426856994629 2.92469596862793 26.4898681640625 4.559755802154541 L 26.99945831298828 4.846516132354736 L 26.99945831298828 4.886036396026611 C 28.70115280151367 5.915055274963379 30.22186660766602 7.253849983215332 31.42481803894043 8.786685943603516 C 32.82914733886719 10.57613563537598 33.79878997802734 12.63525581359863 34.22890853881836 14.74145603179932 L 34.27509307861328 14.96760749816895 C 36.10867691040039 15.22828674316406 37.88080978393555 15.77872276306152 39.49565887451172 16.596435546875 C 42.39757919311523 18.06478691101074 44.65828704833984 20.37397384643555 45.86143112182617 23.09893608093262 C 46.53569412231445 24.60443115234375 46.86684799194336 26.29369163513184 46.81918716430664 27.98456573486328 C 46.77140808105469 29.67954635620117 46.34346008300781 31.34355354309082 45.58153915405273 32.7976188659668 C 44.75359725952148 34.48385620117188 43.41172409057617 36.04571914672852 41.58769989013672 37.44789505004883 C 41.96365356445313 38.56428146362305 42.32144546508789 39.69063568115234 42.65417861938477 40.80554580688477 L 43.30068969726563 42.97183609008789 Z M 35.83695220947266 23.79769897460938 C 35.91616821289063 24.07317352294922 36.00188446044922 24.3402214050293 36.12899017333984 24.45638656616211 L 36.15307998657227 24.47839546203613 L 36.17567825317383 24.5019359588623 C 36.30207061767578 24.6335563659668 36.50901031494141 24.70903587341309 36.74342727661133 24.70901679992676 C 36.96343231201172 24.7090015411377 37.2284049987793 24.63483238220215 37.40320205688477 24.47577667236328 L 37.56285858154297 24.19140625 C 37.72611999511719 23.90059661865234 37.57324981689453 23.57793617248535 37.49993896484375 23.45270538330078 C 37.32843017578125 23.15972518920898 37.04026031494141 22.96287536621094 36.78285980224609 22.96287536621094 C 36.75888061523438 22.96287536621094 36.73469924926758 22.96454620361328 36.71097946166992 22.96784591674805 L 36.66386795043945 22.97439575195313 L 36.61634063720703 22.9764461517334 C 36.2595329284668 22.99183654785156 35.9812126159668 23.38042831420898 35.83695220947266 23.79769897460938 Z M 27.52099800109863 22.95112609863281 C 27.44112968444824 22.95112609863281 27.3660888671875 22.96641540527344 27.29161834716797 22.99786567687988 L 27.24544906616211 23.01736640930176 L 27.19755935668945 23.03215599060059 C 26.84315872192383 23.14156532287598 26.73148918151855 23.52871513366699 26.70569801330566 23.64476585388184 C 26.65055847167969 23.89294624328613 26.6717586517334 24.23081588745117 26.89662933349609 24.43479537963867 L 26.92901802062988 24.46417617797852 L 26.95871925354004 24.49627685546875 C 27.12876892089844 24.6800365447998 27.37831878662109 24.70747566223145 27.51193809509277 24.70747566223145 C 27.85026931762695 24.70747566223145 28.24883842468262 24.53252601623535 28.35602951049805 24.19815635681152 L 28.37178802490234 24.14896583557129 L 28.39253807067871 24.10166549682617 C 28.5135498046875 23.82581520080566 28.38462829589844 23.55962562561035 28.2970085144043 23.42551612854004 C 28.11163902282715 23.14176559448242 27.79978942871094 22.95112609863281 27.52099800109863 22.95112609863281 Z M 22.44206809997559 10.91787624359131 C 22.2951488494873 10.91787624359131 22.15267944335938 10.94514560699463 22.01863861083984 10.99893569946289 L 21.97963905334473 11.01458549499512 L 21.93946838378906 11.02691555023193 C 21.45193862915039 11.1764554977417 21.20899963378906 11.65352630615234 21.14419937133789 12.05013561248779 C 21.07915878295898 12.44824600219727 21.15829849243164 12.98010635375977 21.57549858093262 13.27889633178711 L 21.62203979492188 13.31222629547119 L 21.66446876525879 13.3506555557251 C 21.85692977905273 13.52494621276855 22.09635925292969 13.61331558227539 22.37608909606934 13.61331558227539 C 22.76241874694824 13.61331558227539 23.17733955383301 13.436936378479 23.45890808105469 13.15300559997559 C 23.60757446289063 13.00310134887695 23.78247261047363 12.75911712646484 23.80080986022949 12.43002891540527 L 23.79238891601563 12.37950611114502 L 23.80120849609375 12.25989627838135 C 23.83210945129395 11.84073638916016 23.60742950439453 11.53133583068848 23.47075843811035 11.38421630859375 C 23.19948959350586 11.09220600128174 22.81492805480957 10.91787624359131 22.44206809997559 10.91787624359131 Z M 10.92508888244629 10.90898609161377 C 10.79155921936035 10.90898609161377 10.66069889068604 10.93329620361328 10.53614902496338 10.98122596740723 L 10.50199890136719 10.99437618255615 L 10.46696853637695 11.00498580932617 C 9.967208862304688 11.1564359664917 9.719018936157227 11.64524555206299 9.653398513793945 12.05219554901123 C 9.587859153747559 12.45865631103516 9.669288635253906 12.99972629547119 10.09438896179199 13.29937553405762 L 10.13257884979248 13.32628631591797 L 10.16808891296387 13.35665607452393 C 10.41450881958008 13.5673360824585 10.70049858093262 13.61155605316162 10.89702892303467 13.61155605316162 C 11.46386909484863 13.61155605316162 12.12653923034668 13.24083614349365 12.25432872772217 12.62045574188232 L 12.26253890991211 12.58062553405762 L 12.27394866943359 12.54159641265869 C 12.40829849243164 12.08206558227539 12.19354915618896 11.70016574859619 12.0535888671875 11.51342582702637 C 11.77414894104004 11.14059638977051 11.34172916412354 10.90898609161377 10.92508888244629 10.90898609161377 Z"
        fill="#06b37b" stroke="none"/>
    </g>
  </g>
</svg>
