<svg height="96" viewBox="0 0 96 96" width="96" xmlns="http://www.w3.org/2000/svg">
  <defs>
    <clipPath id="clip-on_the_way">
      <rect height="96" width="96"/>
    </clipPath>
  </defs>
  <g clip-path="url(#clip-on_the_way)" id="on_the_way">
    <g data-name="shipped (1)" id="shipped_1_" transform="translate(0 -76.063)">
      <path d="M101.538,102.079H43.824a1.6,1.6,0,0,0-1.6,1.6v33.666H47.03a3.206,3.206,0,1,1,0,6.413H42.221v4.809a1.6,1.6,0,0,0,1.6,1.6h59.317V103.682A1.6,1.6,0,0,0,101.538,102.079Z" data-name="Path 2530"
            fill="#fff"
            id="Path_2530" transform="translate(-34.305 -6.514)"/>
      <path d="M386.4,238.9H367.165v22.444h25.65V245.311A6.413,6.413,0,0,0,386.4,238.9Z" data-name="Path 2531"
            fill="#fff"
            id="Path_2531" transform="translate(-298.329 -117.682)"/>
      <path d="M367.165,264.551h17.368a3.206,3.206,0,0,1,3.206,3.206v14.428H367.165Z" data-name="Path 2532"
            fill="#fff"
            id="Path_2532" transform="translate(-298.329 -138.526)"/>
      <path d="M379.99,136.284H367.165V142.7H384.8v-1.6A4.81,4.81,0,0,0,379.99,136.284Z" data-name="Path 2533"
            fill="#fff"
            id="Path_2533" transform="translate(-298.329 -34.306)"/>
      <path d="M386.4,183.314,383.2,170.489H367.165v12.825Z" data-name="Path 2534" fill="#fff"
            id="Path_2534" transform="translate(-298.329 -62.099)"/>
      <path d="M469.779,273.1h6.413v6.413h-3.206a3.206,3.206,0,0,1-3.206-3.206V273.1Z" data-name="Path 2535"
            fill="#f1f4fb"
            id="Path_2535" transform="translate(-381.705 -145.474)"/>
      <path d="M378.387,298.756a12.818,12.818,0,0,0-11.222,6.621v4.6H391.1A12.819,12.819,0,0,0,378.387,298.756Z" data-name="Path 2536"
            fill="#fff"
            id="Path_2536" transform="translate(-298.329 -166.318)"/>
      <path d="M476.9,320.412v7.162h3.363A12.794,12.794,0,0,0,476.9,320.412Z" data-name="Path 2537" fill="#fff"
            id="Path_2537" transform="translate(-387.495 -183.914)"/>
      <circle cx="8.016" cy="8.016" data-name="Ellipse 497" fill="#fff" id="Ellipse_497"
              r="8.016" transform="translate(72.042 137.247)"/>
      <path d="M373.579,175.3H384.4l-1.2-4.809H367.166v12.825h4.809V176.9A1.6,1.6,0,0,1,373.579,175.3Z" data-name="Path 2538"
            fill="#fff"
            id="Path_2538" transform="translate(-298.33 -62.099)"/>
      <path d="M61.459,298.756a12.793,12.793,0,0,0-10,4.809H42.221v4.809a1.6,1.6,0,0,0,1.6,1.6h59.317v-6.413H71.462A12.794,12.794,0,0,0,61.459,298.756Z" data-name="Path 2539"
            fill="#fff"
            id="Path_2539" stroke="#06b37b" stroke-width="1" transform="translate(-34.305 -166.318)"/>
      <circle cx="8.016" cy="8.016" data-name="Ellipse 498" fill="#fff" id="Ellipse_498"
              r="8.016" transform="translate(19.138 137.247)"/>
      <path d="M89.27,119.8l-2.486-9.943a1.5,1.5,0,0,0,1.19-1.47v-1.6a6.32,6.32,0,0,0-6.312-6.312H70.339V97.168a3.11,3.11,0,0,0-3.106-3.106H9.519a3.11,3.11,0,0,0-3.106,3.106v27.254a1.5,1.5,0,0,0,3.006,0V97.168a.1.1,0,0,1,.1-.1H67.232a.1.1,0,0,1,.1.1v27.254a1.5,1.5,0,1,0,3.006,0v-1.7H88.076a4.918,4.918,0,0,1,4.67,3.407H88.073a1.5,1.5,0,0,0-1.5,1.5v3.206a4.715,4.715,0,0,0,4.709,4.709h1.7v6.613h-3.93a9.516,9.516,0,0,0-17.991,0h-.724V130.835a1.5,1.5,0,1,0-3.006,0v11.322H36.149a9.516,9.516,0,0,0-17.991,0H9.519a.1.1,0,0,1-.1-.1V138.75h6.513a1.5,1.5,0,1,0,0-3.006H1.5a1.5,1.5,0,1,0,0,3.006h4.91v3.307a3.11,3.11,0,0,0,3.106,3.106h8.119c0,.033,0,.067,0,.1a9.519,9.519,0,1,0,19.037,0c0-.034,0-.067,0-.1H70.541c0,.033,0,.067,0,.1a9.519,9.519,0,1,0,19.037,0c0-.034,0-.067,0-.1h4.913a1.5,1.5,0,0,0,1.5-1.5V127.628A7.928,7.928,0,0,0,89.27,119.8Zm-18.931-9.91H83.694l2.455,9.819H70.339Zm11.322-6.413a3.31,3.31,0,0,1,3.307,3.307v.1H70.339v-3.407Zm-54.507,48.3a6.513,6.513,0,1,1,6.513-6.513A6.52,6.52,0,0,1,27.153,151.776Zm52.9,0a6.513,6.513,0,1,1,6.513-6.513A6.52,6.52,0,0,1,80.058,151.776ZM91.28,132.538a1.705,1.705,0,0,1-1.7-1.7v-1.7h3.407v3.407h-1.7Z" data-name="Path 2540"
            fill="#06b37b"
            id="Path_2540" transform="translate(0)"/>
      <path d="M131.373,350.6a3.106,3.106,0,1,0,3.106,3.106A3.11,3.11,0,0,0,131.373,350.6Z" data-name="Path 2541"
            fill="#06b37b"
            id="Path_2541" transform="translate(-104.22 -208.44)"/>
      <path d="M413.561,350.6a3.106,3.106,0,1,0,3.106,3.106A3.11,3.11,0,0,0,413.561,350.6Z" data-name="Path 2542"
            fill="#06b37b"
            id="Path_2542" transform="translate(-333.503 -208.44)"/>
      <path d="M205.228,317.9a1.5,1.5,0,0,0,1.5,1.5h22.444a1.5,1.5,0,1,0,0-3.006H206.731A1.5,1.5,0,0,0,205.228,317.9Z" data-name="Path 2543"
            fill="#06b37b"
            id="Path_2543" transform="translate(-166.752 -180.648)"/>
      <path d="M18.605,285.193H37.843a1.5,1.5,0,0,0,0-3.006H18.605a1.5,1.5,0,0,0,0,3.006Z" data-name="Path 2544"
            fill="#06b37b"
            id="Path_2544" transform="translate(-13.896 -152.856)"/>
    </g>
  </g>
</svg>
