<svg height="48" viewBox="0 0 48 48" width="48" xmlns="http://www.w3.org/2000/svg">
  <defs>
    <clipPath id="clip-user">
      <rect height="48" width="48"/>
    </clipPath>
  </defs>
  <g clip-path="url(#clip-user)" id="user">
    <path d="M24,27A13.5,13.5,0,1,0,10.5,13.5,13.5,13.5,0,0,0,24,27Zm12,3H30.834a16.32,16.32,0,0,1-13.669,0H12A12,12,0,0,0,0,42v1.5A4.5,4.5,0,0,0,4.5,48h39A4.5,4.5,0,0,0,48,43.5V42A12,12,0,0,0,36,30Z" data-name="Icon awesome-user-alt"
          fill="#fff"
          id="Icon_awesome-user-alt" transform="translate(0 0)"/>
  </g>
</svg>
