<svg height="48" viewBox="0 0 48 48" width="48" xmlns="http://www.w3.org/2000/svg">
  <defs>
    <clipPath id="clip-wallet2">
      <rect height="48" width="48"/>
    </clipPath>
  </defs>
  <g clip-path="url(#clip-wallet2)" id="wallet2">
    <g data-name="Icon ionic-md-wallet" id="Icon_ionic-md-wallet" transform="translate(0 2.462)">
      <g data-name="Path 2508" fill="#fff" id="Path_2508" transform="translate(0 0)">
        <path
          d="M 40.82455444335938 44.27252197265625 L 5.101626396179199 44.27252197265625 C 3.82460618019104 44.27252197265625 2.613586187362671 43.7948112487793 1.691656231880188 42.9273796081543 C 0.761986255645752 42.05266952514648 0.2499962896108627 40.88976287841797 0.2499962896108627 39.65287017822266 L 0.2499962896108627 4.8696608543396 C 0.2499962896108627 3.632771015167236 0.761986255645752 2.469861030578613 1.691656231880188 1.595150947570801 C 2.613586187362671 0.7277209758758545 3.82460618019104 0.2500009834766388 5.101626396179199 0.2500009834766388 L 40.81296539306641 0.2500009834766388 C 43.37947463989258 0.2500009834766388 45.46747589111328 2.358771085739136 45.46747589111328 4.95081090927124 L 45.46747589111328 7.170431137084961 L 22.87612533569336 7.170431137084961 C 20.01474571228027 7.170431137084961 17.68683624267578 9.503500938415527 17.68683624267578 12.37123107910156 L 17.68683624267578 32.15129089355469 C 17.68683624267578 35.0190315246582 20.01994705200195 37.35210037231445 22.88773536682129 37.35210037231445 L 45.47907638549805 37.35210037231445 L 45.47907638549805 39.57171249389648 C 45.47907638549805 42.16374969482422 43.39106750488281 44.27252197265625 40.82455444335938 44.27252197265625 Z"
          stroke="none"/>
        <path
          d="M 5.101627349853516 0.5 C 3.888526916503906 0.5 2.738346099853516 0.9535903930664063 1.862964630126953 1.7772216796875 C 0.9840469360351563 2.604190826416016 0.4999961853027344 3.702442169189453 0.4999961853027344 4.869651794433594 L 0.4999961853027344 39.65287017822266 C 0.4999961853027344 40.8200798034668 0.9840469360351563 41.91833114624023 1.862964630126953 42.74530029296875 C 2.738346099853516 43.56893157958984 3.888526916503906 44.02252197265625 5.101627349853516 44.02252197265625 L 40.82455444335938 44.02252197265625 C 43.25321578979492 44.02252197265625 45.22907638549805 42.0258903503418 45.22907638549805 39.57171249389648 L 45.22907638549805 37.60210037231445 L 22.88773536682129 37.60210037231445 C 19.88209533691406 37.60210037231445 17.43683624267578 35.15688323974609 17.43683624267578 32.15129089355469 L 17.43683624267578 12.37123107910156 C 17.43683624267578 9.365642547607422 19.87689590454102 6.920421600341797 22.87612533569336 6.920421600341797 L 45.21747589111328 6.920421600341797 L 45.21747589111328 4.950809478759766 C 45.21747589111328 2.496631622314453 43.24162673950195 0.5 40.81296539306641 0.5 L 5.101627349853516 0.5 M 5.101627349853516 0 L 40.81296539306641 0 C 43.53769683837891 0 45.71747589111328 2.226131439208984 45.71747589111328 4.950809478759766 L 45.71747589111328 7.420421600341797 L 22.87612533569336 7.420421600341797 C 20.13980674743652 7.420421600341797 17.93683624267578 9.646549224853516 17.93683624267578 12.37123107910156 L 17.93683624267578 32.15129089355469 C 17.93683624267578 34.87598037719727 20.13980674743652 37.10210037231445 22.88773536682129 37.10210037231445 L 45.72907638549805 37.10210037231445 L 45.72907638549805 39.57171249389648 C 45.72907638549805 42.29639053344727 43.53769683837891 44.52252197265625 40.82455444335938 44.52252197265625 L 5.101627349853516 44.52252197265625 C 2.353706359863281 44.52252197265625 -3.814697265625e-06 42.3775520324707 -3.814697265625e-06 39.65287017822266 L -3.814697265625e-06 4.869651794433594 C -3.814697265625e-06 2.144969940185547 2.353706359863281 0 5.101627349853516 0 Z"
          fill="#c9c9c9" stroke="none"/>
      </g>
      <g data-name="Path 2509" fill="#fff" id="Path_2509" transform="translate(22.841 12.29)">
        <path
          d="M 23.53701782226563 19.69237518310547 L 1.855127334594727 19.69237518310547 C 0.9700573682785034 19.69237518310547 0.2499973475933075 18.97232627868652 0.2499973475933075 18.08726501464844 L 0.2499973475933075 1.855095624923706 C 0.2499973475933075 0.9700356721878052 0.9700573682785034 0.2499956786632538 1.855127334594727 0.2499956786632538 L 23.53701782226563 0.2499956786632538 C 24.42209815979004 0.2499956786632538 25.14215660095215 0.9700356721878052 25.14215660095215 1.855095624923706 L 25.14215660095215 18.08726501464844 C 25.14215660095215 18.97232627868652 24.42209815979004 19.69237518310547 23.53701782226563 19.69237518310547 Z M 8.702037811279297 6.015175819396973 C 7.612757205963135 6.015175819396973 6.560147285461426 6.470475673675537 5.814107418060303 7.264345645904541 C 5.057597160339355 8.069355964660645 4.678887367248535 9.122635841369629 4.747747421264648 10.23016548156738 C 4.871867179870605 12.20350551605225 6.462147235870361 13.79435539245605 8.446897506713867 13.93080615997314 C 8.532546997070313 13.93613529205322 8.617637634277344 13.93878555297852 8.701427459716797 13.93878555297852 C 9.79069709777832 13.93880558013916 10.84330749511719 13.48351573944092 11.58935737609863 12.68965530395508 C 12.34588718414307 11.88463592529297 12.72459697723389 10.83133602142334 12.65572738647461 9.723775863647461 C 12.51917743682861 7.737415790557861 10.92830753326416 6.14715576171875 8.955117225646973 6.023055553436279 C 8.87089729309082 6.017825603485107 8.78581714630127 6.015175819396973 8.702037811279297 6.015175819396973 Z"
          stroke="none"/>
        <path
          d="M 23.53701782226563 19.44237518310547 C 24.28424644470215 19.44237518310547 24.89215660095215 18.83447647094727 24.89215660095215 18.08726501464844 L 24.89215660095215 1.855095624923706 C 24.89215660095215 1.107895731925964 24.28424644470215 0.4999956786632538 23.53701782226563 0.4999956786632538 L 1.855127334594727 0.4999956786632538 C 1.107907295227051 0.4999956786632538 0.4999973475933075 1.107895731925964 0.4999973475933075 1.855095624923706 L 0.4999973475933075 18.08726501464844 C 0.4999973475933075 18.83447647094727 1.107907295227051 19.44237518310547 1.855127334594727 19.44237518310547 L 23.53701782226563 19.44237518310547 M 8.702037811279297 5.765175819396973 C 8.790977478027344 5.765175819396973 8.881277084350586 5.767985820770264 8.970807075500488 5.773555755615234 C 11.06867694854736 5.9054856300354 12.76001739501953 7.595645904541016 12.90524768829346 9.70826530456543 C 12.97844696044922 10.88540554046631 12.5758171081543 12.00502586364746 11.77153778076172 12.86085605621338 C 10.97842693328857 13.70479583740234 9.859416961669922 14.18880558013916 8.701436996459961 14.18878555297852 C 8.612497329711914 14.18878555297852 8.522197723388672 14.18597602844238 8.429757118225098 14.18021583557129 C 6.320377349853516 14.03519535064697 4.630197525024414 12.34386539459229 4.498227119445801 10.24568557739258 C 4.425047397613525 9.06855583190918 4.827667236328125 7.948965549468994 5.631927490234375 7.093145847320557 C 6.425027370452881 6.249205589294434 7.544037342071533 5.765175819396973 8.702037811279297 5.765175819396973 M 23.53701782226563 19.94237518310547 L 1.855127334594727 19.94237518310547 C 0.8348073363304138 19.94237518310547 -2.653198180269101e-06 19.10757637023926 -2.653198180269101e-06 18.08726501464844 L -2.653198180269101e-06 1.855095624923706 C -2.653198180269101e-06 0.8347856998443604 0.8348073363304138 -4.31579610449262e-06 1.855127334594727 -4.31579610449262e-06 L 23.53701782226563 -4.31579610449262e-06 C 24.55734825134277 -4.31579610449262e-06 25.39215660095215 0.8347856998443604 25.39215660095215 1.855095624923706 L 25.39215660095215 18.08726501464844 C 25.39215660095215 19.10757637023926 24.55734825134277 19.94237518310547 23.53701782226563 19.94237518310547 Z M 8.702041625976563 6.265172958374023 C 6.572915077209473 6.265172958374023 4.863088130950928 8.056571006774902 4.997267246246338 10.21465587615967 C 5.113217353820801 12.05817604064941 6.608917236328125 13.55385589599609 8.464047431945801 13.68139553070068 C 8.543674468994141 13.68634605407715 8.622876167297363 13.68878650665283 8.701434135437012 13.68878841400146 C 10.83057022094727 13.68882942199707 12.54040622711182 11.89738941192627 12.40620708465576 9.739295959472656 C 12.27867698669434 7.884185791015625 10.78297710418701 6.388505458831787 8.939427375793457 6.272565841674805 C 8.859800338745117 6.267614841461182 8.780598640441895 6.265172958374023 8.702041625976563 6.265172958374023 Z"
          fill="#c9c9c9" stroke="none"/>
      </g>
    </g>
  </g>
</svg>
