<svg height="48" viewBox="0 0 48 48" width="48" xmlns="http://www.w3.org/2000/svg">
  <defs>
    <clipPath id="clip-Wishlist">
      <rect height="48" width="48"/>
    </clipPath>
  </defs>
  <g clip-path="url(#clip-Wishlist)" id="Wishlist">
    <path d="M38.452,3.938h-.115a13.129,13.129,0,0,0-10.962,6,13.129,13.129,0,0,0-10.962-6H16.3A13.045,13.045,0,0,0,3.375,16.976c0,4.269,1.869,10.327,5.515,15.312,6.946,9.5,18.485,17.8,18.485,17.8s11.538-8.308,18.485-17.8c3.646-4.985,5.515-11.042,5.515-15.312A13.045,13.045,0,0,0,38.452,3.938Zm4.8,26.446c-4.915,6.727-12.4,12.935-15.877,15.646C23.9,43.318,16.413,37.1,11.5,30.372c-3.381-4.615-4.892-10.05-4.892-13.4a9.79,9.79,0,0,1,9.715-9.8h.1a9.674,9.674,0,0,1,4.742,1.246,10.082,10.082,0,0,1,3.508,3.288,3.241,3.241,0,0,0,5.423,0,10.183,10.183,0,0,1,3.508-3.288A9.674,9.674,0,0,1,38.348,7.18h.1a9.79,9.79,0,0,1,9.715,9.8A25.207,25.207,0,0,1,43.252,30.384Z" data-name="Icon ionic-ios-heart-empty"
          fill="#c9c9c9"
          id="Icon_ionic-ios-heart-empty" transform="translate(-3.375 -2.356)"/>
  </g>
</svg>
